<?xml version="1.0" encoding="utf-8"?>
<!-- Generator: Adobe Illustrator 21.0.2, SVG Export Plug-In . SVG Version: 6.00 Build 0)  -->
<svg version="1.1" id="Шар_1" xmlns="http://www.w3.org/2000/svg" xmlns:xlink="http://www.w3.org/1999/xlink" x="0px" y="0px"
	 viewBox="0 0 30 30.3" enable-background="new 0 0 30 30.3" xml:space="preserve">
<g>
	<g>
		<defs>
			<rect id="SVGID_1_" width="30" height="30.3"/>
		</defs>
		<clipPath id="SVGID_2_">
			<use xlink:href="#SVGID_1_"  overflow="visible"/>
		</clipPath>
		<path clip-path="url(#SVGID_2_)" d="M29.9,14.1h-1.4V7.4c0-1.6-1.3-2.9-2.9-2.9h-2l-2-3.6C21.3,0.3,20.7,0,20,0
			c-0.3,0-0.6,0.1-0.8,0.2l-7.7,4.3H2.9C1.3,4.5,0,5.8,0,7.4v19.9c0,1.6,1.3,2.9,2.9,2.9h22.6c1.6,0,2.9-1.3,2.9-2.9v-5.8h1.4V14.1z
			 M25.5,5.7c0.9,0,1.6,0.7,1.7,1.5h-2.2l-0.9-1.5H25.5z M19.8,1.2c0.3-0.2,0.6,0,0.8,0.2l3.2,5.7H9L19.8,1.2z M27.3,27.3
			c0,1-0.8,1.7-1.7,1.7H2.9c-1,0-1.7-0.8-1.7-1.7V7.4c0-1,0.8-1.7,1.7-1.7h6.5L6.6,7.2H3.3c-0.3,0-0.6,0.3-0.6,0.6
			c0,0.3,0.3,0.6,0.6,0.6h24v5.7H23c-2,0-3.6,1.6-3.6,3.6v0.2c0,2,1.6,3.6,3.6,3.6h4.2V27.3z M28.7,20.3H23c-1.3,0-2.4-1.1-2.4-2.4
			v-0.2c0-1.3,1.1-2.4,2.4-2.4h5.7V20.3z M24.8,17.8c0,0.7-0.6,1.3-1.3,1.3c-0.7,0-1.3-0.6-1.3-1.3c0-0.7,0.6-1.3,1.3-1.3
			C24.2,16.5,24.8,17.1,24.8,17.8L24.8,17.8z M24.8,17.8"/>
	</g>
</g>
</svg>
