<?xml version="1.0" encoding="utf-8"?>
<!-- Generator: Adobe Illustrator 21.0.2, SVG Export Plug-In . SVG Version: 6.00 Build 0)  -->
<svg version="1.1" id="Шар_1" xmlns="http://www.w3.org/2000/svg" xmlns:xlink="http://www.w3.org/1999/xlink" x="0px" y="0px"
	 viewBox="0 0 35 31.6" enable-background="new 0 0 35 31.6" xml:space="preserve">
<g>
	<path fill="#181713" d="M13.5,18.2c0-0.9,0.6-1.7,1.4-1.7h5.3c0.8,0,1.4,0.8,1.4,1.7c0,0.9-0.6,1.7-1.4,1.7h-5.3
		C14.1,19.9,13.5,19.2,13.5,18.2L13.5,18.2z M33.6,28.7c0,0.7-0.5,1.3-1,1.3H2.4c-0.6,0-1-0.6-1-1.3V12.6l10.7,6.2
		c0.2,1.6,1.4,2.8,2.8,2.8h5.3c1.4,0,2.5-1.2,2.8-2.8l6.7-3.9c0.3-0.2,0.5-0.7,0.3-1.1c-0.2-0.4-0.6-0.6-0.9-0.4L22.7,17
		c-0.4-1.2-1.4-2.1-2.6-2.1h-5.3c-1.2,0-2.2,0.9-2.6,2.1L1.4,10.7V8.1c0-0.7,0.5-1.3,1-1.3h30.1c0.6,0,1,0.6,1,1.3V28.7L33.6,28.7z
		 M12.5,3.4c0-0.9,0.6-1.7,1.4-1.7H21c0.8,0,1.4,0.8,1.4,1.7v1.8h-9.9V3.4L12.5,3.4z M32.6,5.2h-8.7V3.4C23.8,1.5,22.6,0,21,0H14
		c-1.5,0-2.8,1.5-2.8,3.4v1.8H2.4C1.1,5.2,0,6.5,0,8.1v20.6c0,1.6,1.1,2.9,2.4,2.9h30.1c1.3,0,2.4-1.3,2.4-2.9V8.1
		C35,6.5,33.9,5.2,32.6,5.2L32.6,5.2z"/>
	<path fill="#181713" d="M31.7,11.8l-0.4,0.2c-0.3,0.2-0.5,0.7-0.3,1.1c0.1,0.3,0.4,0.5,0.6,0.5c0.1,0,0.2,0,0.3-0.1l0.4-0.2
		c0.3-0.2,0.5-0.7,0.3-1.1C32.5,11.8,32.1,11.6,31.7,11.8L31.7,11.8z"/>
</g>
</svg>
