<?xml version="1.0" encoding="utf-8"?>
<!-- Generator: Adobe Illustrator 21.0.2, SVG Export Plug-In . SVG Version: 6.00 Build 0)  -->
<svg version="1.1" id="Шар_1" xmlns="http://www.w3.org/2000/svg" xmlns:xlink="http://www.w3.org/1999/xlink" x="0px" y="0px"
	 viewBox="0 0 35.6 31.3" enable-background="new 0 0 35.6 31.3" xml:space="preserve">
<g>
	<g>
		<defs>
			<rect id="SVGID_1_" width="35.6" height="31.3"/>
		</defs>
		<clipPath id="SVGID_2_">
			<use xlink:href="#SVGID_1_"  overflow="visible"/>
		</clipPath>
		<path clip-path="url(#SVGID_2_)" d="M35.4,28.8L34,23.9c0-0.1-0.1-0.2-0.2-0.3c-0.9-2.6-3-4.7-5.7-5.4l-0.4-0.1
			c-0.6-0.2-1.3,0-1.7,0.5c-1.5,1.7-3.3,1.8-5.3,1.8c-2,0-3.9-0.1-5.3-1.8c-0.4-0.5-1.1-0.7-1.7-0.5l-0.4,0.1
			c-2,0.5-3.8,1.8-4.9,3.6H4.1c0,0,0,0-0.1,0c0,0,0-0.1,0-0.1l0.9-3.1c0.8-2.4,2.2-3.2,5.1-3.9c0.1,0,0.2-0.1,0.3-0.2
			c0.2,0.2,0.5,0.4,0.8,0.5c0.1,0.1,0.2,0.1,0.3,0.1c0.2,0,0.5-0.1,0.6-0.4c0.2-0.3,0-0.7-0.3-0.9c-1.5-0.8-2.6-3.1-2.6-5.4
			c0-2.1,1.7-3.8,3.8-3.8c0.4,0,0.8,0.1,1.1,0.2c-0.4,0.9-0.6,1.9-0.6,2.9c0,5.7,3.4,10.6,7.5,10.6c4,0,7.6-4.9,7.6-10.6
			c0-4.2-3.4-7.6-7.6-7.6c-2.6,0-5,1.4-6.3,3.4c-0.6-0.2-1.2-0.3-1.8-0.3c-1.8,0-3.4,1-4.3,2.4C8.5,5.6,8.4,5.5,8.3,5.5
			c-0.5-0.3-1-0.4-1.6-0.4c-1.9,0-3.4,1.5-3.4,3.3c0,1.1,0.3,2.1,0.8,2.9c-1.5,0.4-2.9,1-3.5,3L0,16.3c-0.1,0.3,0,0.7,0.2,1
			c0.2,0.3,0.6,0.5,0.9,0.5h2.6c0,0.1-0.1,0.3-0.1,0.4l-0.9,3.1c-0.1,0.4,0,0.9,0.3,1.3c0.3,0.4,0.7,0.6,1.1,0.6h3.6
			c-0.1,0.2-0.2,0.5-0.2,0.7L6,28.8c-0.1,0.6,0,1.2,0.3,1.6c0.4,0.5,0.9,0.7,1.5,0.7h25.8c0.6,0,1.1-0.3,1.5-0.7
			C35.4,30,35.6,29.4,35.4,28.8L35.4,28.8z M15.4,4.8c0,0,0.1-0.1,0.1-0.1c0,0,0-0.1,0.1-0.1c1-1.9,3-3.1,5.4-3.1
			c2.8,0,5.1,1.8,5.9,4.4c-1.2,0.2-2.4-0.2-3.1-1.2c-0.2-0.3-0.6-0.4-0.9-0.1c-0.1,0.1-0.2,0.2-0.2,0.3c0,0,0,0.1-0.1,0.1
			c-0.9,1.9-4.1,2.7-7.7,2C14.9,6.1,15.1,5.5,15.4,4.8L15.4,4.8z M17.3,8.4c2.7,0,4.9-0.8,6-2.4c0.8,0.7,1.9,1.1,3,1.1
			c0.3,0,0.6,0,0.8-0.1c0,0.2,0,0.4,0,0.6c0,4.9-2.9,9.2-6.2,9.2c-3.2,0-6-4-6.2-8.7C15.6,8.3,16.5,8.4,17.3,8.4L17.3,8.4z
			 M1.4,16.4l0.5-1.7c0.4-1.4,1.2-1.8,2.9-2.2c0.1,0,0.2-0.1,0.3-0.1c0.2,0.1,0.3,0.2,0.5,0.3c0.1,0.1,0.2,0.1,0.3,0.1
			c0.2,0,0.5-0.1,0.6-0.4c0.2-0.3,0-0.7-0.3-0.9c-0.9-0.5-1.5-1.8-1.5-3.1c0-1.1,0.9-2,2-2c0.4,0,0.7,0.1,1,0.2
			c0.1,0,0.2,0.1,0.3,0.1c-0.2,0.5-0.3,1-0.3,1.6c0,1.9,0.6,3.8,1.6,5.1c-2,0.5-3.8,1.2-5,3H1.4z M34,29.6c-0.1,0.1-0.2,0.2-0.4,0.2
			H7.8c-0.2,0-0.4-0.1-0.4-0.2c-0.1-0.1-0.1-0.3-0.1-0.5l1.4-4.9c0.7-2.3,2.5-4.1,4.9-4.7l0.4-0.1c0.1,0,0.3,0,0.4,0.1
			c1.8,2.1,4.1,2.3,6.3,2.3c2.2,0,4.5-0.2,6.3-2.3c0.1-0.1,0.2-0.2,0.4-0.1l0.4,0.1c2.3,0.6,4.2,2.4,4.9,4.7l0.6,2.1
			c0,0.1,0.1,0.2,0.1,0.2l0.7,2.5C34.2,29.3,34.1,29.5,34,29.6L34,29.6z M34,29.6"/>
	</g>
</g>
</svg>
