<?xml version="1.0" encoding="utf-8"?>
<!-- Generator: Adobe Illustrator 21.0.2, SVG Export Plug-In . SVG Version: 6.00 Build 0)  -->
<svg version="1.1" id="Шар_1" xmlns="http://www.w3.org/2000/svg" xmlns:xlink="http://www.w3.org/1999/xlink" x="0px" y="0px"
	 viewBox="0 0 33.5 31.2" enable-background="new 0 0 33.5 31.2" xml:space="preserve">
<g>
	<path d="M31.2,5.6c-1.2,0-2.2,1-2.2,2.2c0,0.4,0.1,0.8,0.3,1.1l-5.9,5.9c-0.3-0.2-0.7-0.3-1.1-0.3c-0.4,0-0.8,0.1-1.1,0.3l-2.5-2.5
		c0.2-0.3,0.3-0.7,0.3-1.1c0-1.2-1-2.2-2.2-2.2s-2.2,1-2.2,2.2c0,0.3,0.1,0.5,0.1,0.7l-11,11c-0.4-0.3-0.9-0.5-1.5-0.5V2.8
		c0-0.9,0.8-1.7,1.7-1.7h25.7c0.9,0,1.7,0.8,1.7,1.7v1.1c0,0.3,0.3,0.6,0.6,0.6c0.3,0,0.6-0.3,0.6-0.6V2.8c0-1.5-1.3-2.8-2.8-2.8
		H3.9C2.4,0,1.1,1.3,1.1,2.8v19.8C0.5,23,0,23.7,0,24.5c0,1.2,1,2.2,2.2,2.2c1.2,0,2.2-1,2.2-2.2c0-0.3-0.1-0.5-0.1-0.7l11-11
		c0.4,0.3,0.9,0.5,1.5,0.5c0.4,0,0.8-0.1,1.1-0.3l2.5,2.5c-0.2,0.3-0.3,0.7-0.3,1.1c0,1.2,1,2.2,2.2,2.2c1.2,0,2.2-1,2.2-2.2
		c0-0.4-0.1-0.8-0.3-1.1l5.9-5.9c0.3,0.2,0.7,0.3,1.1,0.3v18.4c0,0.9-0.8,1.7-1.7,1.7h-1.7V15.1c0-0.3-0.3-0.6-0.6-0.6
		c-0.3,0-0.6,0.3-0.6,0.6v15.1h-3.3v-9.5c0-0.3-0.3-0.6-0.6-0.6c-0.3,0-0.6,0.3-0.6,0.6v9.5H19V16.2c0-0.3-0.3-0.6-0.6-0.6
		s-0.6,0.3-0.6,0.6v13.9h-3.3V16.2c0-0.3-0.3-0.6-0.6-0.6c-0.3,0-0.6,0.3-0.6,0.6v13.9H10v-9.5c0-0.3-0.3-0.6-0.6-0.6
		c-0.3,0-0.6,0.3-0.6,0.6v9.5H5.6v-2.2c0-0.3-0.3-0.6-0.6-0.6s-0.6,0.3-0.6,0.6v2.2H3.9c-0.9,0-1.7-0.8-1.7-1.7
		c0-0.3-0.3-0.6-0.6-0.6c-0.3,0-0.6,0.3-0.6,0.6c0,1.5,1.3,2.8,2.8,2.8h25.7c1.5,0,2.8-1.3,2.8-2.8V9.7c0.7-0.4,1.1-1.1,1.1-1.9
		C33.5,6.6,32.5,5.6,31.2,5.6L31.2,5.6z M2.2,25.7c-0.6,0-1.1-0.5-1.1-1.1c0-0.6,0.5-1.1,1.1-1.1c0.6,0,1.1,0.5,1.1,1.1
		C3.3,25.2,2.8,25.7,2.2,25.7L2.2,25.7z M16.7,12.3c-0.6,0-1.1-0.5-1.1-1.1c0-0.6,0.5-1.1,1.1-1.1s1.1,0.5,1.1,1.1
		C17.8,11.8,17.3,12.3,16.7,12.3L16.7,12.3z M22.3,17.8c-0.6,0-1.1-0.5-1.1-1.1s0.5-1.1,1.1-1.1c0.6,0,1.1,0.5,1.1,1.1
		S22.9,17.8,22.3,17.8L22.3,17.8z M31.2,8.9c-0.3,0-0.6-0.1-0.8-0.3c0,0,0,0,0,0c0,0,0,0,0,0c-0.2-0.2-0.3-0.5-0.3-0.8
		c0-0.6,0.5-1.1,1.1-1.1c0.6,0,1.1,0.5,1.1,1.1S31.9,8.9,31.2,8.9L31.2,8.9z M31.2,8.9"/>
</g>
</svg>
