<?xml version="1.0" encoding="utf-8"?>
<!-- Generator: Adobe Illustrator 21.0.2, SVG Export Plug-In . SVG Version: 6.00 Build 0)  -->
<svg version="1.1" id="Шар_1" xmlns="http://www.w3.org/2000/svg" xmlns:xlink="http://www.w3.org/1999/xlink" x="0px" y="0px"
	 viewBox="0 0 30.4 30.4" enable-background="new 0 0 30.4 30.4" xml:space="preserve">
<g>
	<g>
		<path d="M22.6,24.2c-0.2-0.2-0.5-0.2-0.7-0.1c-0.2,0.2-0.2,0.4-0.1,0.7l1.5,2c0.1,0.1,0.2,0.2,0.4,0.2c0,0,0,0,0,0
			c0.2,0,0.3-0.1,0.4-0.2l2.2-3.7c0.1-0.2,0.1-0.5-0.2-0.6c-0.2-0.1-0.5-0.1-0.6,0.2l-1.9,3.1L22.6,24.2z M22.6,24.2"/>
		<path d="M23.7,27.2c-0.2,0-0.4-0.1-0.6-0.3l-1.5-2c-0.1-0.2-0.2-0.3-0.1-0.5c0-0.2,0.1-0.4,0.3-0.5c0.3-0.2,0.8-0.2,1,0.1l0.9,1.1
			l1.7-2.8c0.2-0.3,0.7-0.4,1-0.2c0.2,0.1,0.3,0.3,0.3,0.4c0,0.2,0,0.4-0.1,0.5l-2.2,3.7C24.2,27,24,27.1,23.7,27.2L23.7,27.2z
			 M22.2,24.2c0,0-0.1,0-0.1,0c0,0-0.1,0.1-0.1,0.1c0,0.1,0,0.1,0,0.2l1.5,2c0,0.1,0.1,0.1,0.2,0.1v0.3l0-0.3c0.1,0,0.1,0,0.2-0.1
			l2.2-3.7c0-0.1,0-0.1,0-0.2c0-0.1,0-0.1-0.1-0.1c-0.1-0.1-0.2,0-0.3,0.1l-2.1,3.5l-1.3-1.7C22.4,24.3,22.3,24.2,22.2,24.2z"/>
	</g>
	<g>
		<path d="M28.3,3.1h-7V0.7c0-0.3-0.2-0.5-0.5-0.5c-0.3,0-0.5,0.2-0.5,0.5v2.3h-9.8V0.7c0-0.3-0.2-0.5-0.5-0.5
			c-0.3,0-0.5,0.2-0.5,0.5v2.3H2.1c-1,0-1.9,0.8-1.9,1.9v23.4c0,1,0.8,1.9,1.9,1.9h26.2c1,0,1.9-0.8,1.9-1.9V4.9
			C30.2,3.9,29.3,3.1,28.3,3.1L28.3,3.1z M2.1,4h7.5v1.4c0,0.3,0.2,0.5,0.5,0.5c0.3,0,0.5-0.2,0.5-0.5V4h9.8v1.4
			c0,0.3,0.2,0.5,0.5,0.5c0.3,0,0.5-0.2,0.5-0.5V4h7c0.5,0,0.9,0.4,0.9,0.9v3.3H1.2V4.9C1.2,4.4,1.6,4,2.1,4L2.1,4z M29.3,28.3
			c0,0.5-0.4,0.9-0.9,0.9H2.1c-0.5,0-0.9-0.4-0.9-0.9V9.1h28.1V28.3z M29.3,28.3"/>
		<path d="M28.3,30.4H2.1c-1.2,0-2.1-1-2.1-2.1V4.9c0-1.2,1-2.1,2.1-2.1h7.2V0.7C9.4,0.3,9.7,0,10.1,0c0.4,0,0.7,0.3,0.7,0.7v2.1
			h9.3V0.7c0-0.4,0.3-0.7,0.7-0.7c0.4,0,0.7,0.3,0.7,0.7v2.1h6.8c1.2,0,2.1,1,2.1,2.1v23.4C30.4,29.5,29.5,30.4,28.3,30.4z M2.1,3.3
			C1.2,3.3,0.5,4,0.5,4.9v23.4c0,0.9,0.7,1.6,1.6,1.6h26.2c0.9,0,1.6-0.7,1.6-1.6V4.9c0-0.9-0.7-1.6-1.6-1.6H21V0.7
			c0-0.1-0.1-0.2-0.2-0.2c-0.1,0-0.2,0.1-0.2,0.2v2.6H10.3V0.7c0-0.1-0.1-0.2-0.2-0.2c-0.1,0-0.2,0.1-0.2,0.2v2.6H2.1z M28.3,29.5
			H2.1c-0.7,0-1.2-0.5-1.2-1.2V8.9h28.6v19.4C29.5,29,29,29.5,28.3,29.5z M1.4,9.4v18.9c0,0.4,0.3,0.7,0.7,0.7h26.2
			c0.4,0,0.7-0.3,0.7-0.7V9.4H1.4z M29.5,8.5H0.9V4.9c0-0.7,0.5-1.2,1.2-1.2h7.7v1.7c0,0.1,0.1,0.2,0.2,0.2c0.1,0,0.2-0.1,0.2-0.2
			V3.7h10.3v1.7c0,0.1,0.1,0.2,0.2,0.2C21,5.6,21,5.5,21,5.4V3.7h7.3c0.7,0,1.2,0.5,1.2,1.2V8.5z M1.4,8H29v-3
			c0-0.4-0.3-0.7-0.7-0.7h-6.8v1.2c0,0.4-0.3,0.7-0.7,0.7c-0.4,0-0.7-0.3-0.7-0.7V4.2h-9.3v1.2c0,0.4-0.3,0.7-0.7,0.7
			c-0.4,0-0.7-0.3-0.7-0.7V4.2H2.1c-0.4,0-0.7,0.3-0.7,0.7V8z"/>
	</g>
	<g>
		<path d="M8.7,11.5H4.9v3.7h3.7V11.5z M7.7,14.3H5.9v-1.9h1.9V14.3z M7.7,14.3"/>
		<path d="M8.9,15.5H4.7v-4.2h4.2V15.5z M5.2,15h3.2v-3.2H5.2V15z M8,14.5H5.6v-2.4H8V14.5z M6.1,14h1.4v-1.4H6.1V14z"/>
	</g>
	<g>
		<path d="M17.1,11.5h-3.7v3.7h3.7V11.5z M16.2,14.3h-1.9v-1.9h1.9V14.3z M16.2,14.3"/>
		<path d="M17.3,15.5h-4.2v-4.2h4.2V15.5z M13.6,15h3.2v-3.2h-3.2V15z M16.4,14.5H14v-2.4h2.4V14.5z M14.5,14h1.4v-1.4h-1.4V14z"/>
	</g>
	<g>
		<path d="M25.5,11.5h-3.7v3.7h3.7V11.5z M24.6,14.3h-1.9v-1.9h1.9V14.3z M24.6,14.3"/>
		<path d="M25.8,15.5h-4.2v-4.2h4.2V15.5z M22,15h3.2v-3.2H22V15z M24.8,14.5h-2.4v-2.4h2.4V14.5z M23,14h1.4v-1.4H23V14z"/>
	</g>
	<g>
		<path d="M8.7,17.1H4.9v3.7h3.7V17.1z M7.7,19.9H5.9V18h1.9V19.9z M7.7,19.9"/>
		<path d="M8.9,21.1H4.7v-4.2h4.2V21.1z M5.2,20.6h3.2v-3.2H5.2V20.6z M8,20.1H5.6v-2.4H8V20.1z M6.1,19.6h1.4v-1.4H6.1V19.6z"/>
	</g>
	<g>
		<path d="M17.1,17.1h-3.7v3.7h3.7V17.1z M16.2,19.9h-1.9V18h1.9V19.9z M16.2,19.9"/>
		<path d="M17.3,21.1h-4.2v-4.2h4.2V21.1z M13.6,20.6h3.2v-3.2h-3.2V20.6z M16.4,20.1H14v-2.4h2.4V20.1z M14.5,19.6h1.4v-1.4h-1.4
			V19.6z"/>
	</g>
	<g>
		<path d="M8.7,22.7H4.9v3.7h3.7V22.7z M7.7,25.5H5.9v-1.9h1.9V25.5z M7.7,25.5"/>
		<path d="M8.9,26.7H4.7v-4.2h4.2V26.7z M5.2,26.2h3.2v-3.2H5.2V26.2z M8,25.8H5.6v-2.4H8V25.8z M6.1,25.3h1.4v-1.4H6.1V25.3z"/>
	</g>
	<g>
		<path d="M17.1,22.7h-3.7v3.7h3.7V22.7z M16.2,25.5h-1.9v-1.9h1.9V25.5z M16.2,25.5"/>
		<path d="M17.3,26.7h-4.2v-4.2h4.2V26.7z M13.6,26.2h3.2v-3.2h-3.2V26.2z M16.4,25.8H14v-2.4h2.4V25.8z M14.5,25.3h1.4v-1.4h-1.4
			V25.3z"/>
	</g>
	<g>
		<path d="M25.5,17.1h-3.7v3.7h3.7V17.1z M24.6,19.9h-1.9V18h1.9V19.9z M24.6,19.9"/>
		<path d="M25.8,21.1h-4.2v-4.2h4.2V21.1z M22,20.6h3.2v-3.2H22V20.6z M24.8,20.1h-2.4v-2.4h2.4V20.1z M23,19.6h1.4v-1.4H23V19.6z"
			/>
	</g>
</g>
</svg>
