<?xml version="1.0" encoding="utf-8"?>
<!-- Generator: Adobe Illustrator 21.0.2, SVG Export Plug-In . SVG Version: 6.00 Build 0)  -->
<svg version="1.1" id="Шар_1" xmlns="http://www.w3.org/2000/svg" xmlns:xlink="http://www.w3.org/1999/xlink" x="0px" y="0px"
	 viewBox="0 0 51 51" enable-background="new 0 0 51 51" xml:space="preserve">
<g>
	<path fill="#1E1A19" d="M49.3,46.8h-6.8v-17h6.8V46.8L49.3,46.8z M28.6,48.8c-1,0.3-2.1,0.5-3.2,0.5h-0.2c-1.4,0-2.7-0.3-4-0.8
		L2.7,40.7c-0.6-0.3-1-0.8-1-1.5c0-0.7,0.4-1.3,1.1-1.5c0.3-0.1,0.7-0.1,1.1,0l12.2,3.8c0,0,0,0,0,0c0.3,0.3,0.7,0.5,1.1,0.7
		c0,0,0,0,0.1,0c0.2,0.1,0.4,0.1,0.5,0.2c0,0,0.1,0,0.1,0c0.2,0,0.4,0.1,0.6,0.1h12.8v-1.7H18.7c-0.2,0-0.3,0-0.5-0.1
		c-0.1,0-0.1,0-0.2-0.1c-0.1,0-0.2-0.1-0.3-0.1c-0.1,0-0.1-0.1-0.2-0.1c-0.1-0.1-0.2-0.1-0.3-0.2c0,0-0.1,0-0.1-0.1l0,0
		c-0.1-0.1-0.2-0.3-0.3-0.4l-0.2-0.5c-0.3-0.6-0.3-1.3,0.1-1.9c0.4-0.5,0.9-0.8,1.6-0.8h7c0.2,0,0.3,0,0.5-0.1l6.8-4.5
		c0.4-0.3,0.9-0.4,1.4-0.4h6.6v13L28.6,48.8L28.6,48.8z M50.1,28h-8.5c-0.5,0-0.9,0.4-0.9,0.9v0.9h-6.6c-0.8,0-1.7,0.2-2.4,0.7
		l-6.6,4.4h-6.8c-1.2,0-2.3,0.6-3,1.6c-0.6,0.9-0.7,1.9-0.5,2.9L4.5,36.1c-0.7-0.3-1.5-0.3-2.3,0C0.9,36.5,0,37.7,0,39.2
		c0,1.3,0.8,2.5,2,3l18.5,7.8c1.5,0.6,3,0.9,4.6,0.9h0.2c1.3,0,2.5-0.2,3.8-0.6l11.6-4.1v1.3c0,0.5,0.4,0.9,0.9,0.9h8.5
		c0.5,0,0.9-0.4,0.9-0.9V28.9C51,28.4,50.6,28,50.1,28L50.1,28z"/>
	<path fill="#1E1A19" d="M45.9,19.5c0,0.9-0.8,1.7-1.7,1.7s-1.7-0.8-1.7-1.7c0-0.9,0.8-1.7,1.7-1.7S45.9,18.6,45.9,19.5L45.9,19.5z
		 M40.8,19.5c0,1.9,1.5,3.4,3.4,3.4c1.9,0,3.4-1.5,3.4-3.4c0-1.9-1.5-3.4-3.4-3.4C42.3,16.1,40.8,17.7,40.8,19.5L40.8,19.5z"/>
	<path fill="#1E1A19" d="M32.3,9.4c-0.9,0-1.7-0.8-1.7-1.7S31.4,6,32.3,6S34,6.7,34,7.6S33.2,9.4,32.3,9.4L32.3,9.4z M32.3,4.3
		c-1.9,0-3.4,1.5-3.4,3.4s1.5,3.4,3.4,3.4c1.9,0,3.4-1.5,3.4-3.4S34.2,4.3,32.3,4.3L32.3,4.3z"/>
	<polygon fill="#1E1A19" points="29.1,21.5 46.1,4.5 47.3,5.7 30.4,22.7 29.1,21.5 	"/>
	<path fill="#1E1A19" d="M13.6,25.5C7,25.5,1.7,20.2,1.7,13.6S7,1.7,13.6,1.7S25.5,7,25.5,13.6S20.2,25.5,13.6,25.5L13.6,25.5z
		 M13.6,0C6.1,0,0,6.1,0,13.6c0,7.5,6.1,13.6,13.6,13.6c7.5,0,13.6-6.1,13.6-13.6C27.2,6.1,21.1,0,13.6,0L13.6,0z"/>
	<polygon fill="#1E1A19" points="3.4,26.4 5.1,26.4 5.1,28 3.4,28 3.4,26.4 	"/>
	<polygon fill="#1E1A19" points="3.4,29.8 5.1,29.8 5.1,33.1 3.4,33.1 3.4,29.8 	"/>
	<polygon fill="#1E1A19" points="22.1,26.4 23.8,26.4 23.8,28 22.1,28 22.1,26.4 	"/>
	<polygon fill="#1E1A19" points="22.1,29.8 23.8,29.8 23.8,33.1 22.1,33.1 22.1,29.8 	"/>
	<polygon fill="#1E1A19" points="12.8,28.9 14.5,28.9 14.5,30.6 12.8,30.6 12.8,28.9 	"/>
	<polygon fill="#1E1A19" points="12.8,32.3 14.5,32.3 14.5,34.9 12.8,34.9 12.8,32.3 	"/>
</g>
<path fill="#1E1A19" d="M13.6,22.8c-0.5,0-0.9-0.4-0.9-0.9v-2.2l-0.4-0.1c-0.6-0.2-1.1-0.5-1.5-0.9c-0.2-0.2-0.3-0.4-0.3-0.7
	c0-0.3,0.1-0.5,0.3-0.7c0.2-0.2,0.4-0.3,0.7-0.3c0.3,0,0.5,0.1,0.7,0.3c0.4,0.4,0.9,0.6,1.5,0.6c1.2,0,2.1-1,2.1-2.1
	c0-1.2-1-2.1-2.1-2.1c-2.2,0-4-1.8-4-4c0-1.7,1.1-3.2,2.7-3.8l0.4-0.1V3.5c0-0.5,0.4-0.9,0.9-0.9c0.5,0,0.9,0.4,0.9,0.9v2.2l0.4,0.1
	C15.5,6,16,6.3,16.4,6.8c0.2,0.2,0.3,0.4,0.3,0.7s-0.1,0.5-0.3,0.7c-0.2,0.2-0.4,0.3-0.7,0.3c-0.3,0-0.5-0.1-0.7-0.3
	c-0.4-0.4-0.9-0.6-1.5-0.6c-1.2,0-2.1,1-2.1,2.1c0,1.2,1,2.1,2.1,2.1c2.2,0,4,1.8,4,4c0,1.7-1.1,3.2-2.7,3.8l-0.4,0.1v2.2
	C14.5,22.4,14.1,22.8,13.6,22.8z"/>
</svg>
