<?xml version="1.0" encoding="utf-8"?>
<!-- Generator: Adobe Illustrator 21.0.2, SVG Export Plug-In . SVG Version: 6.00 Build 0)  -->
<svg version="1.1" id="Шар_1" xmlns="http://www.w3.org/2000/svg" xmlns:xlink="http://www.w3.org/1999/xlink" x="0px" y="0px"
	 viewBox="0 0 52.7 53.8" enable-background="new 0 0 52.7 53.8" xml:space="preserve">
<g>
	<path d="M14.1,9.9c0.4,1,1.3,1.7,2.4,1.7h6.5c1.1,0,2-0.7,2.4-1.7c0.3-1,1.4-3.2,2.2-3.9c0.7-0.6,1.1-1.6,0.9-2.5
		c-0.2-0.9-0.8-1.6-1.7-1.9c-2.6-0.9-5-0.6-6.8,0.8c-0.3,0.3-0.7,0.3-1.1,0C17.3,1,15,0.7,12.3,1.6c-0.9,0.3-1.5,1-1.7,1.9
		c-0.2,0.9,0.2,1.9,0.9,2.5C12.5,6.8,13.9,9.2,14.1,9.9L14.1,9.9z M12.3,3.8c0-0.2,0.1-0.5,0.5-0.6c0.8-0.3,1.6-0.4,2.3-0.4
		c1.1,0,2,0.3,2.8,1c1,0.8,2.3,0.8,3.3,0c1.3-1.1,3-1.2,5.1-0.6c0.4,0.1,0.5,0.4,0.5,0.6c0.1,0.3-0.1,0.6-0.3,0.8
		c-1.3,1.1-2.5,4-2.8,4.7c-0.1,0.3-0.4,0.5-0.7,0.5h-6.5c-0.3,0-0.6-0.2-0.7-0.5c-0.4-1.1-2-3.7-3.2-4.7C12.4,4.4,12.3,4.1,12.3,3.8
		L12.3,3.8z M12.3,3.8"/>
	<path d="M27.3,13.4c0-0.5-0.4-0.9-0.9-0.9c-0.2,0-0.3,0.1-0.4,0.1c-0.1-0.1-0.3-0.1-0.4-0.1H15c-0.5,0-0.9,0.4-0.9,0.9
		c0,0.5,0.4,0.9,0.9,0.9h10.5v0.9h-9.7c-0.5,0-0.9,0.4-0.9,0.9c0,0.5,0.4,0.9,0.9,0.9h10.5c0.8,0.7,1.8,1,2.8,1
		c1.2,0,2.3-0.5,3.1-1.3c0.3-0.3,0.3-0.9,0-1.2c-0.3-0.3-0.9-0.3-1.2,0c-1,1-2.7,1-3.7,0V13.4z M27.3,13.4"/>
	<g>
		<defs>
			<rect id="SVGID_1_" width="52.7" height="53.8"/>
		</defs>
		<clipPath id="SVGID_2_">
			<use xlink:href="#SVGID_1_"  overflow="visible"/>
		</clipPath>
		<path clip-path="url(#SVGID_2_)" d="M18.5,23.9c-5.6,0-12.3,7.1-12.3,13.2c0,0.5,0.4,0.9,0.9,0.9C7.6,38,8,37.6,8,37.1
			c0-5,5.9-11.4,10.5-11.4c0.5,0,0.9-0.4,0.9-0.9C19.4,24.3,19,23.9,18.5,23.9L18.5,23.9z M18.5,23.9"/>
		<path clip-path="url(#SVGID_2_)" d="M43.1,29.2c-0.9,0-2,0.1-3.1,0.2c-1.2-2.2-2.7-4-4.7-5.5L29,19.5c-1-0.8-2.7-1.8-4.6-1.8h-6.8
			c-1.7,0-3.4,0.6-4.7,1.6l-6.2,4.5c-6.5,5.1-8.5,14-4.9,21.2c1.3,2.6,3.5,5.8,6.6,6c0.2,0,0.5,0,0.7,0h17.1
			c1.3,1.6,3.3,2.6,5.5,2.6c2.5,0,4.8-1.4,6-3.4c1.6,0.5,3.5,0.8,5.4,0.8c4.2,0,8.8-1.3,8.8-3.5v-4.8h-0.1c0-0.1,0.1-0.3,0.1-0.4
			V32.3C51.8,29.8,46.3,29.2,43.1,29.2L43.1,29.2z M50,32.2C50,32.3,50,32.3,50,32.2c-0.1,0.1-0.1,0.1-0.2,0.1
			c-0.1,0-0.1,0.1-0.2,0.1c-0.1,0-0.1,0.1-0.2,0.1c-0.1,0-0.2,0.1-0.3,0.1c-0.1,0-0.2,0.1-0.3,0.1c-0.1,0-0.3,0.1-0.4,0.1
			c-0.1,0-0.2,0.1-0.4,0.1c-0.2,0-0.4,0.1-0.5,0.1c-0.1,0-0.3,0.1-0.4,0.1c-0.2,0-0.4,0.1-0.7,0.1c-0.2,0-0.3,0-0.5,0.1
			c-0.3,0-0.6,0.1-0.9,0.1c-0.2,0-0.3,0-0.5,0c-0.5,0-1,0-1.5,0c-0.5,0-1,0-1.5,0c-0.2,0-0.3,0-0.5,0c-0.3,0-0.6,0-0.9-0.1
			c-0.2,0-0.3,0-0.5-0.1c-0.2,0-0.5-0.1-0.7-0.1c-0.2,0-0.3-0.1-0.4-0.1c-0.2,0-0.4-0.1-0.5-0.1c-0.1,0-0.2-0.1-0.4-0.1
			c-0.1,0-0.3-0.1-0.4-0.1c-0.1,0-0.2-0.1-0.3-0.1c-0.1,0-0.2-0.1-0.3-0.1c-0.1,0-0.1-0.1-0.2-0.1c-0.1,0-0.1-0.1-0.2-0.1
			c0,0-0.1-0.1-0.1-0.1c0,0,0,0-0.1-0.1c0,0,0,0,0,0c0,0,0.1-0.1,0.1-0.1c0.1,0,0.2-0.1,0.3-0.2c0.1,0,0.1-0.1,0.2-0.1
			c0.1,0,0.2-0.1,0.2-0.1c0.1,0,0.2-0.1,0.3-0.1c0.1,0,0.2-0.1,0.2-0.1c0.2-0.1,0.4-0.1,0.6-0.2c0.1,0,0.2-0.1,0.4-0.1
			c0.1,0,0.3-0.1,0.4-0.1c0.2,0,0.4-0.1,0.5-0.1c1-0.1,2.2-0.3,3.6-0.3C47.2,30.9,49.5,31.8,50,32.2L50,32.2z M36.6,39.5
			c0.1,0,0.2,0.1,0.2,0.1c0.2,0.1,0.3,0.1,0.5,0.2c0.1,0,0.2,0.1,0.3,0.1c0.2,0.1,0.4,0.1,0.6,0.2c0.1,0,0.1,0,0.2,0.1
			c0.3,0.1,0.5,0.1,0.8,0.2c0.1,0,0.1,0,0.2,0c0.2,0,0.5,0.1,0.7,0.1c0.1,0,0.2,0,0.3,0c0.2,0,0.4,0.1,0.6,0.1c0.1,0,0.2,0,0.3,0
			c0.2,0,0.4,0,0.6,0c0.1,0,0.2,0,0.3,0c0.3,0,0.6,0,0.9,0c0.3,0,0.6,0,0.9,0c0.1,0,0.2,0,0.3,0c0.2,0,0.4,0,0.6,0
			c0.1,0,0.2,0,0.3,0c0.2,0,0.4,0,0.6-0.1c0.1,0,0.2,0,0.3,0c0.2,0,0.4-0.1,0.7-0.1c0.1,0,0.1,0,0.2,0c0.3-0.1,0.5-0.1,0.8-0.2
			c0.1,0,0.1,0,0.2-0.1c0.2-0.1,0.4-0.1,0.6-0.2c0.1,0,0.2-0.1,0.3-0.1c0.2-0.1,0.3-0.1,0.5-0.2c0.1,0,0.2-0.1,0.2-0.1
			c0.2-0.1,0.3-0.1,0.5-0.2c0,0,0.1,0,0.1-0.1l0,3.1c-0.2,0.5-2.5,1.6-6.1,1.8c-0.3,0-0.6,0-1,0c-1.9,0-3.8-0.3-5.3-0.8c0,0,0,0,0,0
			c-0.1-0.2-0.2-0.4-0.3-0.5c0,0,0-0.1-0.1-0.1c-0.1-0.2-0.2-0.3-0.3-0.5c0,0-0.1-0.1-0.1-0.1c-0.1-0.1-0.2-0.2-0.3-0.4
			c-0.1-0.1-0.1-0.1-0.2-0.2c-0.1-0.1-0.2-0.2-0.3-0.3c0,0,0,0,0,0c0-0.3,0-1.1,0-2.1c0,0,0.1,0,0.1,0.1
			C36.3,39.3,36.5,39.4,36.6,39.5L36.6,39.5z M25,49.4H9.1c-0.2,0-0.4,0-0.6,0c-1.7-0.1-3.5-1.9-5.1-5c-3.3-6.5-1.4-14.5,4.4-19
			l6.2-4.5c1-0.8,2.3-1.2,3.6-1.2h6.8c1.4,0,2.7,0.8,3.6,1.4l6.3,4.3c1.6,1.2,2.9,2.7,3.9,4.4c-1.1,0.2-2.2,0.6-2.9,1.1l-0.1,0
			c-0.1,0.1-0.2,0.2-0.3,0.3c0,0-0.1,0.1-0.1,0.1c-0.1,0.1-0.1,0.1-0.2,0.2c0,0.1-0.1,0.1-0.1,0.2c0,0.1-0.1,0.1-0.1,0.2
			c-0.1,0.1-0.1,0.3-0.1,0.5v8c-0.3-0.1-0.6-0.2-0.9-0.3c0,0-0.1,0-0.1,0c-0.3-0.1-0.6-0.1-0.9-0.2c0,0-0.1,0-0.1,0
			c-0.2,0-0.4,0-0.5,0c-0.1,0-0.2,0-0.3,0c-0.1,0-0.1,0-0.2,0c-0.3,0-0.6,0.1-0.9,0.1c0,0,0,0,0,0c0,0,0,0-0.1,0
			c-0.3,0.1-0.5,0.1-0.8,0.2c-0.1,0-0.2,0.1-0.3,0.1c-0.3,0.1-0.5,0.2-0.8,0.4c-0.1,0.1-0.2,0.1-0.3,0.2c-0.2,0.1-0.3,0.2-0.5,0.3
			c-0.1,0.1-0.2,0.1-0.3,0.2c-0.2,0.2-0.4,0.3-0.6,0.5c-0.1,0.1-0.2,0.2-0.2,0.3c-0.1,0.1-0.3,0.3-0.4,0.5c-0.1,0.1-0.1,0.2-0.2,0.3
			c-0.2,0.2-0.3,0.5-0.4,0.7c0,0.1-0.1,0.2-0.1,0.3c-0.1,0.2-0.2,0.4-0.3,0.7c0,0.1-0.1,0.1-0.1,0.2c-0.1,0.3-0.2,0.6-0.2,0.9
			c0,0,0,0.1,0,0.1c0,0,0,0.1,0,0.1c0,0.2,0,0.4-0.1,0.6c0,0.1,0,0.1,0,0.2c0,0,0,0.1,0,0.1c0,0.1,0,0.3,0,0.4
			C24.7,47.9,24.8,48.7,25,49.4L25,49.4z M31.7,52c-2.9,0-5.2-2.3-5.3-5.2c0-0.1,0-0.1,0-0.2c0-0.1,0-0.2,0-0.3c0-0.1,0-0.2,0-0.2
			c0-0.1,0-0.2,0-0.2c0-0.2,0.1-0.4,0.2-0.7c0,0,0,0,0-0.1c0.1-0.2,0.2-0.4,0.3-0.6c0,0,0,0,0-0.1c0.5-0.9,1.2-1.7,2.1-2.2
			c0,0,0,0,0,0c0.2-0.1,0.4-0.2,0.6-0.3c0.1,0,0.1,0,0.2-0.1c0.2-0.1,0.4-0.1,0.6-0.2c0,0,0.1,0,0.1,0c0.3-0.1,0.5-0.1,0.8-0.1
			c0.1,0,0.1,0,0.1,0c0.3,0,0.5,0,0.8,0c0,0,0,0,0,0c0.3,0,0.5,0.1,0.8,0.2c0,0,0,0,0,0c0.3,0.1,0.5,0.2,0.8,0.3
			c0.2,0.1,0.5,0.2,0.7,0.4l0,0c0,0,0.1,0,0.1,0.1c0.1,0.1,0.3,0.2,0.4,0.3c0,0,0.1,0.1,0.1,0.1c0.1,0.1,0.3,0.3,0.4,0.4
			c0,0,0,0,0,0c0.3,0.3,0.5,0.7,0.7,1.1c0,0.1,0.1,0.2,0.1,0.3c0.1,0.2,0.1,0.3,0.2,0.5c0,0,0,0,0,0c0.1,0.2,0.1,0.3,0.1,0.5
			c0,0,0,0,0,0c0,0.2,0.1,0.3,0.1,0.5c0,0,0,0,0,0c0,0.2,0,0.4,0,0.5c0,0.2,0,0.4,0,0.6c0,0,0,0.1,0,0.1c0,0.2,0,0.3-0.1,0.5
			c0,0,0,0,0,0.1c0,0.2-0.1,0.3-0.1,0.5l0,0c-0.1,0.2-0.1,0.3-0.2,0.5C35.6,50.7,33.8,52,31.7,52L31.7,52z M43.1,49.4
			c-1.7,0-3.3-0.2-4.7-0.6v0c0.1-0.3,0.2-0.6,0.2-0.9c0-0.1,0-0.1,0-0.2c0-0.3,0.1-0.6,0.1-0.9c0-0.2,0-0.5,0-0.7c0-0.1,0-0.2,0-0.2
			c0-0.1,0-0.2,0-0.3c1.3,0.2,2.9,0.4,4.5,0.4c2.1,0,5.1-0.3,7-1.1l0,2.8C49.9,48.1,47.2,49.4,43.1,49.4L43.1,49.4z M43.1,38.8
			c-4.1,0-6.8-1.3-7-1.7c0-1,0-2,0-2.9c0,0,0,0,0.1,0c0.2,0.1,0.4,0.2,0.7,0.3c0,0,0,0,0,0c0.2,0.1,0.5,0.1,0.7,0.2
			c0.1,0,0.2,0,0.3,0.1c0.2,0,0.4,0.1,0.6,0.1c0.1,0,0.2,0,0.3,0.1c0.2,0,0.4,0.1,0.6,0.1c0.1,0,0.1,0,0.2,0c0.3,0,0.6,0.1,0.8,0.1
			c0.1,0,0.1,0,0.2,0c0.2,0,0.4,0,0.6,0.1c0.1,0,0.2,0,0.3,0c0.2,0,0.4,0,0.6,0c0.1,0,0.2,0,0.2,0c0.3,0,0.5,0,0.7,0
			c0.2,0,0.5,0,0.7,0c0.1,0,0.2,0,0.2,0c0.2,0,0.4,0,0.6,0c0.1,0,0.2,0,0.3,0c0.2,0,0.4,0,0.6-0.1c0.1,0,0.1,0,0.2,0
			c0.3,0,0.6-0.1,0.8-0.1c0.1,0,0.1,0,0.2,0c0.2,0,0.4-0.1,0.6-0.1c0.1,0,0.2,0,0.3-0.1c0.2,0,0.4-0.1,0.6-0.1c0.1,0,0.2,0,0.3-0.1
			c0.3-0.1,0.5-0.1,0.8-0.2c0,0,0,0,0,0c0.2-0.1,0.4-0.2,0.7-0.2c0,0,0.1,0,0.1,0l0,2.8C49.9,37.6,47.2,38.8,43.1,38.8L43.1,38.8z
			 M43.1,38.8"/>
	</g>
</g>
</svg>
