<?xml version="1.0" encoding="utf-8"?>
<!-- Generator: Adobe Illustrator 21.0.2, SVG Export Plug-In . SVG Version: 6.00 Build 0)  -->
<svg version="1.1" id="Шар_1" xmlns="http://www.w3.org/2000/svg" xmlns:xlink="http://www.w3.org/1999/xlink" x="0px" y="0px"
	 viewBox="0 0 53.5 53.5" enable-background="new 0 0 53.5 53.5" xml:space="preserve">
<g>
	<g>
		<defs>
			<rect id="SVGID_1_" width="53.5" height="53.5"/>
		</defs>
		<clipPath id="SVGID_2_">
			<use xlink:href="#SVGID_1_"  overflow="visible"/>
		</clipPath>
		<path clip-path="url(#SVGID_2_)" fill="#181713" d="M50.5,23.7L23.7,50.5c-0.5,0.5-1.2,0.8-1.9,0.8h0c-0.7,0-1.4-0.3-1.9-0.8
			L5.9,36.5l25.8-25.8c0.4-0.4,0.4-1.1,0-1.6c-0.4-0.4-1.1-0.4-1.6,0L4.3,34.9L3,33.6c-0.5-0.5-0.8-1.2-0.8-1.9
			c0-0.7,0.3-1.4,0.8-1.9L29.9,3c0.5-0.5,1.2-0.8,1.9-0.8c0.7,0,1.4,0.3,1.9,0.8l6,6L13.8,34.8c-0.4,0.4-0.4,1.1,0,1.6
			c0.2,0.2,0.5,0.3,0.8,0.3c0.3,0,0.6-0.1,0.8-0.3l25.8-25.8l9.3,9.3C51.5,21,51.5,22.6,50.5,23.7L50.5,23.7z M52.1,18.4L35.2,1.4
			C34.2,0.5,33,0,31.7,0c-1.3,0-2.5,0.5-3.4,1.4L1.4,28.3C0.5,29.2,0,30.4,0,31.7c0,1.3,0.5,2.5,1.4,3.4l2.1,2.1c0,0,0,0,0,0
			c0,0,0,0,0,0l14,14h-1.9c-0.6,0-1.1,0.5-1.1,1.1c0,0.6,0.5,1.1,1.1,1.1h6.2c0,0,0,0,0,0c0,0,0,0,0,0l16.1,0c0.6,0,1.1-0.5,1.1-1.1
			c0-0.6-0.5-1.1-1.1-1.1H26l26.1-26.1C54,23.3,54,20.3,52.1,18.4L52.1,18.4z"/>
	</g>
	<path fill="#181713" d="M27.5,32.2c-0.4-0.4-1.1-0.4-1.6,0L17.1,41c-0.4,0.4-0.4,1.1,0,1.6c0.2,0.2,0.5,0.3,0.8,0.3
		c0.3,0,0.6-0.1,0.8-0.3l8.8-8.8C27.9,33.3,27.9,32.6,27.5,32.2L27.5,32.2z"/>
	<path fill="#181713" d="M23.9,40.5l-3.6,3.6c-0.4,0.4-0.4,1.1,0,1.6c0.2,0.2,0.5,0.3,0.8,0.3c0.3,0,0.6-0.1,0.8-0.3l3.6-3.6
		c0.4-0.4,0.4-1.1,0-1.6C25,40.1,24.3,40.1,23.9,40.5L23.9,40.5z"/>
	<path fill="#181713" d="M27.2,37.2l-0.5,0.5c-0.4,0.4-0.4,1.1,0,1.6c0.2,0.2,0.5,0.3,0.8,0.3c0.3,0,0.6-0.1,0.8-0.3l0.5-0.5
		c0.4-0.4,0.4-1.1,0-1.6C28.3,36.8,27.6,36.8,27.2,37.2L27.2,37.2z"/>
	<path fill="#181713" d="M40.2,24.2l-1.6-1.6l3.2-3.2l1.6,1.6L40.2,24.2L40.2,24.2z M42.6,17.1c-0.2-0.2-0.5-0.3-0.8-0.3
		c-0.3,0-0.6,0.1-0.8,0.3l-4.7,4.7c-0.2,0.2-0.3,0.5-0.3,0.8c0,0.3,0.1,0.6,0.3,0.8l3.2,3.2c0.2,0.2,0.5,0.3,0.8,0.3
		c0.3,0,0.6-0.1,0.8-0.3l4.7-4.7c0.4-0.4,0.4-1.1,0-1.6L42.6,17.1L42.6,17.1z"/>
	<path fill="#181713" d="M33.5,8.4c0.3,0,0.6-0.1,0.8-0.3l0.5-0.5c0.4-0.4,0.4-1.1,0-1.6c-0.4-0.4-1.1-0.4-1.6,0l-0.5,0.5
		c-0.4,0.4-0.4,1.1,0,1.6C32.9,8.3,33.2,8.4,33.5,8.4L33.5,8.4z"/>
	<path fill="#181713" d="M11.2,37.4l-0.5,0.5c-0.4,0.4-0.4,1.1,0,1.6c0.2,0.2,0.5,0.3,0.8,0.3c0.3,0,0.6-0.1,0.8-0.3l0.5-0.5
		c0.4-0.4,0.4-1.1,0-1.6C12.3,37,11.6,37,11.2,37.4L11.2,37.4z"/>
</g>
</svg>
