<?xml version="1.0" encoding="utf-8"?>
<!-- Generator: Adobe Illustrator 21.0.2, SVG Export Plug-In . SVG Version: 6.00 Build 0)  -->
<svg version="1.1" id="Шар_1" xmlns="http://www.w3.org/2000/svg" xmlns:xlink="http://www.w3.org/1999/xlink" x="0px" y="0px"
	 viewBox="0 0 26.2 24.5" enable-background="new 0 0 26.2 24.5" xml:space="preserve">
<g>
	<path fill="#070709" d="M22.4,24.5H3.8c-2.1,0-3.8-1.7-3.8-3.8V5.5c0-2.1,1.7-3.8,3.8-3.8h18.6c2.1,0,3.8,1.7,3.8,3.8v15.3
		C26.2,22.8,24.5,24.5,22.4,24.5z M3.8,2.7C2.3,2.7,1,3.9,1,5.5v15.3c0,1.5,1.3,2.8,2.8,2.8h18.6c1.5,0,2.8-1.3,2.8-2.8V5.5
		c0-1.5-1.3-2.8-2.8-2.8H3.8z"/>
</g>
<g>
	<path fill="#070709" d="M25.7,7.6H0.5C0.2,7.6,0,7.4,0,7.1s0.2-0.5,0.5-0.5h25.2c0.3,0,0.5,0.2,0.5,0.5S26,7.6,25.7,7.6z"/>
</g>
<g>
	<path fill="#070709" d="M6.8,4.4c-0.3,0-0.5-0.2-0.5-0.5V0.5C6.3,0.2,6.5,0,6.8,0s0.5,0.2,0.5,0.5v3.4C7.3,4.2,7.1,4.4,6.8,4.4z"/>
</g>
<g>
	<path fill="#070709" d="M19.4,4.4c-0.3,0-0.5-0.2-0.5-0.5V0.5c0-0.3,0.2-0.5,0.5-0.5c0.3,0,0.5,0.2,0.5,0.5v3.4
		C19.9,4.2,19.7,4.4,19.4,4.4z"/>
</g>
<g>
	<path fill="#070709" d="M13.1,21.2c-3.1,0-5.6-2.5-5.6-5.6s2.5-5.6,5.6-5.6c3.1,0,5.6,2.5,5.6,5.6S16.2,21.2,13.1,21.2z M13.1,11.1
		c-2.5,0-4.6,2-4.6,4.6s2,4.6,4.6,4.6c2.5,0,4.6-2,4.6-4.6S15.6,11.1,13.1,11.1z"/>
</g>
<g>
	<path fill="#070709" d="M12.6,18.1c-0.2,0-0.3-0.1-0.4-0.2l-1.8-2.6c-0.2-0.2-0.1-0.5,0.1-0.7c0.2-0.2,0.5-0.1,0.7,0.1l1.4,2
		l2.3-3.8c0.1-0.2,0.4-0.3,0.7-0.2c0.2,0.1,0.3,0.4,0.2,0.7L13,17.9C12.9,18,12.8,18.1,12.6,18.1C12.6,18.1,12.6,18.1,12.6,18.1z"/>
</g>
</svg>
