<?xml version="1.0" encoding="utf-8"?>
<!-- Generator: Adobe Illustrator 21.0.2, SVG Export Plug-In . SVG Version: 6.00 Build 0)  -->
<svg version="1.1" id="Шар_1" xmlns="http://www.w3.org/2000/svg" xmlns:xlink="http://www.w3.org/1999/xlink" x="0px" y="0px"
	 viewBox="0 0 23.1 23.1" enable-background="new 0 0 23.1 23.1" xml:space="preserve">
<path fill="#070709" d="M22.1,12.7c-0.6,5.3-5.1,9.4-10.5,9.4C5.7,22.1,1,17.4,1,11.6C1,5.7,5.7,1,11.6,1c3,0,5.7,1.3,7.7,3.3h1.3
	c-2.1-2.6-5.4-4.3-9-4.3C5.2,0,0,5.2,0,11.6c0,6.4,5.2,11.6,11.6,11.6c6,0,10.9-4.6,11.5-10.4H22.1z"/>
<g>
	<path fill="#070709" d="M20.7,4.9C20.6,5,20.4,5,20.3,5l-3.4-0.6c-0.3,0-0.5-0.3-0.4-0.6c0-0.3,0.3-0.5,0.6-0.4L20.4,4
		c0.3,0,0.5,0.3,0.4,0.6C20.8,4.7,20.8,4.8,20.7,4.9z"/>
</g>
<g>
	<path fill="#070709" d="M20.1,5c-0.1-0.1-0.2-0.2-0.3-0.3L18.9,1c-0.1-0.3,0.1-0.5,0.4-0.6c0.3-0.1,0.5,0.1,0.6,0.4l0.9,3.7
		c0.1,0.3-0.1,0.5-0.4,0.6C20.3,5,20.2,5,20.1,5z"/>
</g>
<text transform="matrix(1 0 0 1 5.4389 15)" font-family="'MyriadPro-Regular'" font-size="12px">24</text>
<g>
	<path fill="#070709" d="M11.8,3.9c-0.3,0-0.5-0.2-0.5-0.5V1.9c0-0.3,0.2-0.5,0.5-0.5c0.3,0,0.5,0.2,0.5,0.5v1.5
		C12.3,3.7,12.1,3.9,11.8,3.9z"/>
</g>
<g>
	<path fill="#070709" d="M11.8,21.6c-0.3,0-0.5-0.2-0.5-0.5v-1.5c0-0.3,0.2-0.5,0.5-0.5c0.3,0,0.5,0.2,0.5,0.5v1.5
		C12.3,21.4,12.1,21.6,11.8,21.6z"/>
</g>
<g>
	<path fill="#070709" d="M3.9,12.1c0,0.3-0.2,0.5-0.5,0.5l-1.5,0c-0.3,0-0.5-0.2-0.5-0.5c0-0.3,0.2-0.5,0.5-0.5l1.5,0
		C3.7,11.6,3.9,11.8,3.9,12.1z"/>
</g>
<g>
	<path fill="#070709" d="M21.6,12.3c0,0.3-0.2,0.5-0.5,0.5l-1.5,0c-0.3,0-0.5-0.2-0.5-0.5c0-0.3,0.2-0.5,0.5-0.5l1.5,0
		C21.4,11.8,21.6,12,21.6,12.3z"/>
</g>
</svg>
