<?xml version="1.0" encoding="utf-8"?>
<!-- Generator: Adobe Illustrator 21.0.2, SVG Export Plug-In . SVG Version: 6.00 Build 0)  -->
<svg version="1.1" id="Шар_1" xmlns="http://www.w3.org/2000/svg" xmlns:xlink="http://www.w3.org/1999/xlink" x="0px" y="0px"
	 viewBox="0 0 30.5 23.1" enable-background="new 0 0 30.5 23.1" xml:space="preserve">
<path fill="#070709" d="M15,11.2c-3.1,0-5.6-2.5-5.6-5.6S11.9,0,15,0s5.6,2.5,5.6,5.6S18.1,11.2,15,11.2z M15,1
	c-2.5,0-4.6,2.1-4.6,4.6s2.1,4.6,4.6,4.6s4.6-2.1,4.6-4.6S17.6,1,15,1z"/>
<path fill="#070709" d="M3.7,22.4c-2.1,0-3.7-1.7-3.7-3.7s1.7-3.7,3.7-3.7s3.7,1.7,3.7,3.7S5.8,22.4,3.7,22.4z M3.7,15.9
	c-1.5,0-2.7,1.2-2.7,2.7s1.2,2.7,2.7,2.7s2.7-1.2,2.7-2.7S5.2,15.9,3.7,15.9z"/>
<path fill="#070709" d="M15,23.1c-2.1,0-3.7-1.7-3.7-3.7s1.7-3.7,3.7-3.7s3.7,1.7,3.7,3.7S17.1,23.1,15,23.1z M15,16.7
	c-1.5,0-2.7,1.2-2.7,2.7s1.2,2.7,2.7,2.7s2.7-1.2,2.7-2.7S16.5,16.7,15,16.7z"/>
<path fill="#070709" d="M26.8,22.4c-2.1,0-3.7-1.7-3.7-3.7s1.7-3.7,3.7-3.7s3.7,1.7,3.7,3.7S28.9,22.4,26.8,22.4z M26.8,15.9
	c-1.5,0-2.7,1.2-2.7,2.7s1.2,2.7,2.7,2.7s2.7-1.2,2.7-2.7S28.3,15.9,26.8,15.9z"/>
<rect x="3.9" y="12.3" transform="matrix(0.7451 -0.667 0.667 0.7451 -6.382 8.8643)" fill="#070709" width="9.1" height="1"/>
<rect x="21.4" y="7.9" transform="matrix(0.6484 -0.7613 0.7613 0.6484 -1.9807 21.1265)" fill="#070709" width="1" height="9.6"/>
<rect x="14.5" y="10.5" fill="#070709" width="1" height="5.7"/>
</svg>
