<?xml version="1.0" encoding="utf-8"?>
<!-- Generator: Adobe Illustrator 21.0.2, SVG Export Plug-In . SVG Version: 6.00 Build 0)  -->
<svg version="1.1" id="Шар_1" xmlns="http://www.w3.org/2000/svg" xmlns:xlink="http://www.w3.org/1999/xlink" x="0px" y="0px"
	 viewBox="0 0 329.3 290.9" enable-background="new 0 0 329.3 290.9" xml:space="preserve">
<g>
	<path fill="#F5A303" d="M94.4,290.9c-0.7,0-6.9-0.1-12.4-3.3c-4.9-2.9-7.5-7.7-7.9-8.4L3.4,157c-0.5-0.7-3.4-5.4-3.4-11.2
		c0-6.1,3.2-11.3,3.3-11.5L73,13.4c0.4-0.8,4.5-8.1,9.1-10.9c3.4-2,8.5-2.4,12.1-2.4c0.9,0,1.6,0,1.8,0L233.8,0
		c0.4,0,8.7,0.3,13.6,3.3c4.8,3,7.8,8,7.9,8.2l70.9,122.4c0.2,0.3,3.1,5.9,3.1,11.6c0,6.2-3.1,11.4-3.3,11.6l-70.7,122.6
		c-0.1,0.2-2.5,4.3-6.8,7.4c-4.8,3.5-11,3.6-12.2,3.6c0,0-0.1,0-0.1,0L94.4,290.9C94.4,290.9,94.4,290.9,94.4,290.9z M94.2,5.1
		c-4.2,0-7.7,0.6-9.6,1.7c-2.9,1.7-6.2,7.1-7.3,9L7.6,136.7c-0.1,0.1-2.6,4.4-2.6,9c0,4.6,2.5,8.5,2.6,8.5c0,0,0.1,0.1,0.1,0.1
		l70.8,122.3c0,0,0.1,0.1,0.1,0.1c0,0,2.1,4.1,6,6.4c4.4,2.6,9.6,2.6,9.9,2.6v2.5l0-2.5l141.9-0.1c0,0,0,0,0,0
		c2.2,0,6.4-0.6,9.3-2.7c3.4-2.5,5.3-5.8,5.4-5.9l70.8-122.7c0.1-0.1,2.6-4.3,2.6-9.1c0-3.7-1.8-7.9-2.5-9.1L250.9,14
		c0,0-2.5-4.1-6.2-6.4c-3.1-1.9-9-2.5-11-2.5L96,5.1c0,0-0.1,0-0.2,0C95.8,5.1,95.2,5.1,94.2,5.1z"/>
</g>
</svg>
