<?xml version="1.0" encoding="UTF-8"?><!DOCTYPE svg PUBLIC "-//W3C//DTD SVG 1.1//EN" "http://www.w3.org/Graphics/SVG/1.1/DTD/svg11.dtd"><svg xmlns="http://www.w3.org/2000/svg" xmlns:xlink="http://www.w3.org/1999/xlink"><defs>
        <path id="a" d="M0 0h35.6v31.3H0z"/>
    
        <path id="a" d="M0 0h30v30.3H0z"/>
    
        <path id="a" d="M0 0h53.5v53.5H0z"/>
    
        <path id="a" d="M0 0h52.7v53.8H0z"/>
    </defs><symbol id="icon-about1" viewBox="0 0 35.6 31.3">
    
    <clipPath id="b">
        <use xlink:href="#a" overflow="visible"/>
    </clipPath>
    <path clip-path="url(#b)" d="M35.4 28.8L34 23.9c0-.1-.1-.2-.2-.3-.9-2.6-3-4.7-5.7-5.4l-.4-.1c-.6-.2-1.3 0-1.7.5-1.5 1.7-3.3 1.8-5.3 1.8s-3.9-.1-5.3-1.8c-.4-.5-1.1-.7-1.7-.5l-.4.1c-2 .5-3.8 1.8-4.9 3.6H4.1 4v-.1l.9-3.1c.8-2.4 2.2-3.2 5.1-3.9.1 0 .2-.1.3-.2.2.2.5.4.8.5.1.1.2.1.3.1.2 0 .5-.1.6-.4.2-.3 0-.7-.3-.9-1.5-.8-2.6-3.1-2.6-5.4 0-2.1 1.7-3.8 3.8-3.8.4 0 .8.1 1.1.2-.4.9-.6 1.9-.6 2.9 0 5.7 3.4 10.6 7.5 10.6 4 0 7.6-4.9 7.6-10.6 0-4.2-3.4-7.6-7.6-7.6-2.6 0-5 1.4-6.3 3.4-.6-.2-1.2-.3-1.8-.3-1.8 0-3.4 1-4.3 2.4 0 0-.1-.1-.2-.1-.5-.3-1-.4-1.6-.4-1.9 0-3.4 1.5-3.4 3.3 0 1.1.3 2.1.8 2.9-1.5.4-2.9 1-3.5 3l-.6 2c-.1.3 0 .7.2 1 .2.3.6.5.9.5h2.6c0 .1-.1.3-.1.4l-.9 3.1c-.1.4 0 .9.3 1.3s.7.6 1.1.6h3.6c-.1.2-.2.5-.2.7L6 28.8c-.1.6 0 1.2.3 1.6.4.5.9.7 1.5.7h25.8c.6 0 1.1-.3 1.5-.7.3-.4.5-1 .3-1.6zm-20-24l.1-.1s0-.1.1-.1c1-1.9 3-3.1 5.4-3.1 2.8 0 5.1 1.8 5.9 4.4-1.2.2-2.4-.2-3.1-1.2-.2-.3-.6-.4-.9-.1-.1.1-.2.2-.2.3 0 0 0 .1-.1.1-.9 1.9-4.1 2.7-7.7 2 0-.9.2-1.5.5-2.2zm1.9 3.6c2.7 0 4.9-.8 6-2.4.8.7 1.9 1.1 3 1.1.3 0 .6 0 .8-.1v.6c0 4.9-2.9 9.2-6.2 9.2-3.2 0-6-4-6.2-8.7.9.2 1.8.3 2.6.3zm-15.9 8l.5-1.7c.4-1.4 1.2-1.8 2.9-2.2.1 0 .2-.1.3-.1.2.1.3.2.5.3.1.1.2.1.3.1.2 0 .5-.1.6-.4.2-.3 0-.7-.3-.9-.9-.5-1.5-1.8-1.5-3.1 0-1.1.9-2 2-2 .4 0 .7.1 1 .2.1 0 .2.1.3.1-.2.5-.3 1-.3 1.6 0 1.9.6 3.8 1.6 5.1-2 .5-3.8 1.2-5 3H1.4zM34 29.6c-.1.1-.2.2-.4.2H7.8c-.2 0-.4-.1-.4-.2-.1-.1-.1-.3-.1-.5l1.4-4.9c.7-2.3 2.5-4.1 4.9-4.7l.4-.1c.1 0 .3 0 .4.1 1.8 2.1 4.1 2.3 6.3 2.3s4.5-.2 6.3-2.3c.1-.1.2-.2.4-.1l.4.1c2.3.6 4.2 2.4 4.9 4.7l.6 2.1c0 .1.1.2.1.2l.7 2.5c.1.3 0 .5-.1.6zm0 0"/>
</symbol><symbol id="icon-about2" viewBox="0 0 33.5 31.2">
    <path d="M31.2 5.6c-1.2 0-2.2 1-2.2 2.2 0 .4.1.8.3 1.1l-5.9 5.9c-.3-.2-.7-.3-1.1-.3-.4 0-.8.1-1.1.3l-2.5-2.5c.2-.3.3-.7.3-1.1C19 10 18 9 16.8 9s-2.2 1-2.2 2.2c0 .3.1.5.1.7l-11 11c-.4-.3-.9-.5-1.5-.5V2.8c0-.9.8-1.7 1.7-1.7h25.7c.9 0 1.7.8 1.7 1.7v1.1c0 .3.3.6.6.6s.6-.3.6-.6V2.8c0-1.5-1.3-2.8-2.8-2.8H3.9C2.4 0 1.1 1.3 1.1 2.8v19.8C.5 23 0 23.7 0 24.5c0 1.2 1 2.2 2.2 2.2 1.2 0 2.2-1 2.2-2.2 0-.3-.1-.5-.1-.7l11-11c.4.3.9.5 1.5.5.4 0 .8-.1 1.1-.3l2.5 2.5c-.2.3-.3.7-.3 1.1 0 1.2 1 2.2 2.2 2.2 1.2 0 2.2-1 2.2-2.2 0-.4-.1-.8-.3-1.1l5.9-5.9c.3.2.7.3 1.1.3v18.4c0 .9-.8 1.7-1.7 1.7h-1.7V15.1c0-.3-.3-.6-.6-.6s-.6.3-.6.6v15.1h-3.3v-9.5c0-.3-.3-.6-.6-.6s-.6.3-.6.6v9.5H19v-14c0-.3-.3-.6-.6-.6s-.6.3-.6.6v13.9h-3.3V16.2c0-.3-.3-.6-.6-.6s-.6.3-.6.6v13.9H10v-9.5c0-.3-.3-.6-.6-.6s-.6.3-.6.6v9.5H5.6v-2.2c0-.3-.3-.6-.6-.6s-.6.3-.6.6v2.2h-.5c-.9 0-1.7-.8-1.7-1.7 0-.3-.3-.6-.6-.6s-.6.3-.6.6c0 1.5 1.3 2.8 2.8 2.8h25.7c1.5 0 2.8-1.3 2.8-2.8V9.7c.7-.4 1.1-1.1 1.1-1.9.1-1.2-.9-2.2-2.2-2.2zm-29 20.1c-.6 0-1.1-.5-1.1-1.1 0-.6.5-1.1 1.1-1.1.6 0 1.1.5 1.1 1.1 0 .6-.5 1.1-1.1 1.1zm14.5-13.4c-.6 0-1.1-.5-1.1-1.1 0-.6.5-1.1 1.1-1.1s1.1.5 1.1 1.1c0 .6-.5 1.1-1.1 1.1zm5.6 5.5c-.6 0-1.1-.5-1.1-1.1s.5-1.1 1.1-1.1c.6 0 1.1.5 1.1 1.1s-.5 1.1-1.1 1.1zm8.9-8.9c-.3 0-.6-.1-.8-.3-.2-.2-.3-.5-.3-.8 0-.6.5-1.1 1.1-1.1.6 0 1.1.5 1.1 1.1s-.4 1.1-1.1 1.1zm0 0"/>
</symbol><symbol id="icon-about3" viewBox="0 0 35 31.6">
    <g>
        <path d="M13.5 18.2c0-.9.6-1.7 1.4-1.7h5.3c.8 0 1.4.8 1.4 1.7 0 .9-.6 1.7-1.4 1.7h-5.3c-.8 0-1.4-.7-1.4-1.7zm20.1 10.5c0 .7-.5 1.3-1 1.3H2.4c-.6 0-1-.6-1-1.3V12.6l10.7 6.2c.2 1.6 1.4 2.8 2.8 2.8h5.3c1.4 0 2.5-1.2 2.8-2.8l6.7-3.9c.3-.2.5-.7.3-1.1-.2-.4-.6-.6-.9-.4L22.7 17c-.4-1.2-1.4-2.1-2.6-2.1h-5.3c-1.2 0-2.2.9-2.6 2.1L1.4 10.7V8.1c0-.7.5-1.3 1-1.3h30.1c.6 0 1 .6 1 1.3v20.6h.1zM12.5 3.4c0-.9.6-1.7 1.4-1.7H21c.8 0 1.4.8 1.4 1.7v1.8h-9.9V3.4zm20.1 1.8h-8.7V3.4C23.8 1.5 22.6 0 21 0h-7c-1.5 0-2.8 1.5-2.8 3.4v1.8H2.4C1.1 5.2 0 6.5 0 8.1v20.6c0 1.6 1.1 2.9 2.4 2.9h30.1c1.3 0 2.4-1.3 2.4-2.9V8.1c.1-1.6-1-2.9-2.3-2.9z"/>
        <path d="M31.7 11.8l-.4.2c-.3.2-.5.7-.3 1.1.1.3.4.5.6.5.1 0 .2 0 .3-.1l.4-.2c.3-.2.5-.7.3-1.1-.1-.4-.5-.6-.9-.4z"/>
    </g>
</symbol><symbol id="icon-about4" viewBox="0 0 30.4 30.4">
    <path d="M22.6 24.2c-.2-.2-.5-.2-.7-.1-.2.2-.2.4-.1.7l1.5 2c.1.1.2.2.4.2s.3-.1.4-.2l2.2-3.7c.1-.2.1-.5-.2-.6-.2-.1-.5-.1-.6.2l-1.9 3.1-1-1.6zm0 0"/>
    <path d="M23.7 27.2c-.2 0-.4-.1-.6-.3l-1.5-2c-.1-.2-.2-.3-.1-.5 0-.2.1-.4.3-.5.3-.2.8-.2 1 .1l.9 1.1 1.7-2.8c.2-.3.7-.4 1-.2.2.1.3.3.3.4 0 .2 0 .4-.1.5l-2.2 3.7c-.2.3-.4.4-.7.5zm-1.5-3h-.1l-.1.1v.2l1.5 2c0 .1.1.1.2.1v.3-.3c.1 0 .1 0 .2-.1l2.2-3.7v-.2c0-.1 0-.1-.1-.1-.1-.1-.2 0-.3.1l-2.1 3.5-1.3-1.7c.1-.1 0-.2-.1-.2z"/>
    <path d="M28.3 3.1h-7V.7c0-.3-.2-.5-.5-.5s-.5.2-.5.5V3h-9.8V.7c0-.3-.2-.5-.5-.5s-.5.2-.5.5V3H2.1c-1 0-1.9.8-1.9 1.9v23.4c0 1 .8 1.9 1.9 1.9h26.2c1 0 1.9-.8 1.9-1.9V4.9c0-1-.9-1.8-1.9-1.8zM2.1 4h7.5v1.4c0 .3.2.5.5.5s.5-.2.5-.5V4h9.8v1.4c0 .3.2.5.5.5s.5-.2.5-.5V4h7c.5 0 .9.4.9.9v3.3H1.2V4.9c0-.5.4-.9.9-.9zm27.2 24.3c0 .5-.4.9-.9.9H2.1c-.5 0-.9-.4-.9-.9V9.1h28.1v19.2zm0 0"/>
    <path d="M28.3 30.4H2.1c-1.2 0-2.1-1-2.1-2.1V4.9c0-1.2 1-2.1 2.1-2.1h7.2V.7c.1-.4.4-.7.8-.7s.7.3.7.7v2.1h9.3V.7c0-.4.3-.7.7-.7.4 0 .7.3.7.7v2.1h6.8c1.2 0 2.1 1 2.1 2.1v23.4c0 1.2-.9 2.1-2.1 2.1zM2.1 3.3C1.2 3.3.5 4 .5 4.9v23.4c0 .9.7 1.6 1.6 1.6h26.2c.9 0 1.6-.7 1.6-1.6V4.9c0-.9-.7-1.6-1.6-1.6H21V.7c0-.1-.1-.2-.2-.2s-.2.1-.2.2v2.6H10.3V.7c0-.1-.1-.2-.2-.2s-.2.1-.2.2v2.6H2.1zm26.2 26.2H2.1c-.7 0-1.2-.5-1.2-1.2V8.9h28.6v19.4c0 .7-.5 1.2-1.2 1.2zM1.4 9.4v18.9c0 .4.3.7.7.7h26.2c.4 0 .7-.3.7-.7V9.4H1.4zm28.1-.9H.9V4.9c0-.7.5-1.2 1.2-1.2h7.7v1.7c0 .1.1.2.2.2s.2-.1.2-.2V3.7h10.3v1.7c0 .1.1.2.2.2.3 0 .3-.1.3-.2V3.7h7.3c.7 0 1.2.5 1.2 1.2v3.6zM1.4 8H29V5c0-.4-.3-.7-.7-.7h-6.8v1.2c0 .4-.3.7-.7.7-.4 0-.7-.3-.7-.7V4.2h-9.3v1.2c0 .4-.3.7-.7.7-.4 0-.7-.3-.7-.7V4.2H2.1c-.4 0-.7.3-.7.7V8z"/>
    <path d="M8.7 11.5H4.9v3.7h3.7v-3.7zm-1 2.8H5.9v-1.9h1.9v1.9zm0 0"/>
    <path d="M8.9 15.5H4.7v-4.2h4.2v4.2zM5.2 15h3.2v-3.2H5.2V15zm2.8-.5H5.6v-2.4H8v2.4zM6.1 14h1.4v-1.4H6.1V14z"/>
    <path d="M17.1 11.5h-3.7v3.7h3.7v-3.7zm-.9 2.8h-1.9v-1.9h1.9v1.9zm0 0"/>
    <path d="M17.3 15.5h-4.2v-4.2h4.2v4.2zm-3.7-.5h3.2v-3.2h-3.2V15zm2.8-.5H14v-2.4h2.4v2.4zm-1.9-.5h1.4v-1.4h-1.4V14z"/>
    <path d="M25.5 11.5h-3.7v3.7h3.7v-3.7zm-.9 2.8h-1.9v-1.9h1.9v1.9zm0 0"/>
    <path d="M25.8 15.5h-4.2v-4.2h4.2v4.2zM22 15h3.2v-3.2H22V15zm2.8-.5h-2.4v-2.4h2.4v2.4zM23 14h1.4v-1.4H23V14z"/>
    <g>
        <path d="M8.7 17.1H4.9v3.7h3.7v-3.7zm-1 2.8H5.9V18h1.9v1.9zm0 0"/>
        <path d="M8.9 21.1H4.7v-4.2h4.2v4.2zm-3.7-.5h3.2v-3.2H5.2v3.2zm2.8-.5H5.6v-2.4H8v2.4zm-1.9-.5h1.4v-1.4H6.1v1.4z"/>
    </g>
    <g>
        <path d="M17.1 17.1h-3.7v3.7h3.7v-3.7zm-.9 2.8h-1.9V18h1.9v1.9zm0 0"/>
        <path d="M17.3 21.1h-4.2v-4.2h4.2v4.2zm-3.7-.5h3.2v-3.2h-3.2v3.2zm2.8-.5H14v-2.4h2.4v2.4zm-1.9-.5h1.4v-1.4h-1.4v1.4z"/>
    </g>
    <g>
        <path d="M8.7 22.7H4.9v3.7h3.7v-3.7zm-1 2.8H5.9v-1.9h1.9v1.9zm0 0"/>
        <path d="M8.9 26.7H4.7v-4.2h4.2v4.2zm-3.7-.5h3.2V23H5.2v3.2zm2.8-.4H5.6v-2.4H8v2.4zm-1.9-.5h1.4v-1.4H6.1v1.4z"/>
    </g>
    <g>
        <path d="M17.1 22.7h-3.7v3.7h3.7v-3.7zm-.9 2.8h-1.9v-1.9h1.9v1.9zm0 0"/>
        <path d="M17.3 26.7h-4.2v-4.2h4.2v4.2zm-3.7-.5h3.2V23h-3.2v3.2zm2.8-.4H14v-2.4h2.4v2.4zm-1.9-.5h1.4v-1.4h-1.4v1.4z"/>
    </g>
    <g>
        <path d="M25.5 17.1h-3.7v3.7h3.7v-3.7zm-.9 2.8h-1.9V18h1.9v1.9zm0 0"/>
        <path d="M25.8 21.1h-4.2v-4.2h4.2v4.2zm-3.8-.5h3.2v-3.2H22v3.2zm2.8-.5h-2.4v-2.4h2.4v2.4zm-1.8-.5h1.4v-1.4H23v1.4z"/>
    </g>
</symbol><symbol id="icon-about5" viewBox="0 0 30 30.3">
    
    <clipPath id="b">
        <use xlink:href="#a" overflow="visible"/>
    </clipPath>
    <path clip-path="url(#b)" d="M29.9 14.1h-1.4V7.4c0-1.6-1.3-2.9-2.9-2.9h-2l-2-3.6C21.3.3 20.7 0 20 0c-.3 0-.6.1-.8.2l-7.7 4.3H2.9C1.3 4.5 0 5.8 0 7.4v19.9c0 1.6 1.3 2.9 2.9 2.9h22.6c1.6 0 2.9-1.3 2.9-2.9v-5.8h1.4v-7.4zm-4.4-8.4c.9 0 1.6.7 1.7 1.5H25l-.9-1.5h1.4zm-5.7-4.5c.3-.2.6 0 .8.2l3.2 5.7H9l10.8-5.9zm7.5 26.1c0 1-.8 1.7-1.7 1.7H2.9c-1 0-1.7-.8-1.7-1.7V7.4c0-1 .8-1.7 1.7-1.7h6.5L6.6 7.2H3.3c-.3 0-.6.3-.6.6s.3.6.6.6h24v5.7H23c-2 0-3.6 1.6-3.6 3.6v.2c0 2 1.6 3.6 3.6 3.6h4.2v5.8zm1.4-7H23c-1.3 0-2.4-1.1-2.4-2.4v-.2c0-1.3 1.1-2.4 2.4-2.4h5.7v5zm-3.9-2.5c0 .7-.6 1.3-1.3 1.3-.7 0-1.3-.6-1.3-1.3 0-.7.6-1.3 1.3-1.3.7 0 1.3.6 1.3 1.3zm0 0"/>
</symbol><symbol id="icon-earn1" viewBox="0 0 53.5 53.5">
    
    <clipPath id="b">
        <use xlink:href="#a" overflow="visible"/>
    </clipPath>
    <path clip-path="url(#b)" d="M50.5 23.7L23.7 50.5c-.5.5-1.2.8-1.9.8s-1.4-.3-1.9-.8l-14-14 25.8-25.8c.4-.4.4-1.1 0-1.6-.4-.4-1.1-.4-1.6 0L4.3 34.9 3 33.6c-.5-.5-.8-1.2-.8-1.9s.3-1.4.8-1.9L29.9 3c.5-.5 1.2-.8 1.9-.8s1.4.3 1.9.8l6 6-25.9 25.8c-.4.4-.4 1.1 0 1.6.2.2.5.3.8.3.3 0 .6-.1.8-.3l25.8-25.8 9.3 9.3c1 1.1 1 2.7 0 3.8zm1.6-5.3l-16.9-17C34.2.5 33 0 31.7 0c-1.3 0-2.5.5-3.4 1.4L1.4 28.3c-.9.9-1.4 2.1-1.4 3.4 0 1.3.5 2.5 1.4 3.4l2.1 2.1 14 14h-1.9c-.6 0-1.1.5-1.1 1.1 0 .6.5 1.1 1.1 1.1h22.3c.6 0 1.1-.5 1.1-1.1 0-.6-.5-1.1-1.1-1.1H26l26.1-26.1c1.9-1.8 1.9-4.8 0-6.7z"/>
    <path d="M27.5 32.2c-.4-.4-1.1-.4-1.6 0L17.1 41c-.4.4-.4 1.1 0 1.6.2.2.5.3.8.3.3 0 .6-.1.8-.3l8.8-8.8c.4-.5.4-1.2 0-1.6z"/>
    <path d="M23.9 40.5l-3.6 3.6c-.4.4-.4 1.1 0 1.6.2.2.5.3.8.3.3 0 .6-.1.8-.3l3.6-3.6c.4-.4.4-1.1 0-1.6-.5-.4-1.2-.4-1.6 0z"/>
    <path d="M27.2 37.2l-.5.5c-.4.4-.4 1.1 0 1.6.2.2.5.3.8.3.3 0 .6-.1.8-.3l.5-.5c.4-.4.4-1.1 0-1.6-.5-.4-1.2-.4-1.6 0z"/>
    <path d="M40.2 24.2l-1.6-1.6 3.2-3.2 1.6 1.6-3.2 3.2zm2.4-7.1c-.2-.2-.5-.3-.8-.3-.3 0-.6.1-.8.3l-4.7 4.7c-.2.2-.3.5-.3.8 0 .3.1.6.3.8l3.2 3.2c.2.2.5.3.8.3.3 0 .6-.1.8-.3l4.7-4.7c.4-.4.4-1.1 0-1.6l-3.2-3.2z"/>
    <path d="M33.5 8.4c.3 0 .6-.1.8-.3l.5-.5c.4-.4.4-1.1 0-1.6-.4-.4-1.1-.4-1.6 0l-.5.5c-.4.4-.4 1.1 0 1.6.2.2.5.3.8.3z"/>
    <path d="M11.2 37.4l-.5.5c-.4.4-.4 1.1 0 1.6.2.2.5.3.8.3.3 0 .6-.1.8-.3l.5-.5c.4-.4.4-1.1 0-1.6-.5-.4-1.2-.4-1.6 0z"/>
</symbol><symbol id="icon-earn2" viewBox="0 0 38.7 51.2">
    <g>
        <path d="M19.4 26.5c-.5 0-.9-.4-.9-.9v-2.2l-.5-.2c-.6-.2-1.1-.5-1.5-.9-.2-.2-.3-.4-.3-.7 0-.3.1-.5.3-.7.2-.2.4-.3.7-.3.3 0 .5.1.7.3.4.4.9.6 1.5.6 1.2 0 2.1-1 2.1-2.1 0-1.2-1-2.1-2.1-2.1-2.2 0-4-1.8-4-4 0-1.7 1.1-3.2 2.7-3.8l.4-.1V7.2c0-.5.4-.9.9-.9s.9.4.9.9v2.2l.4.1c.6.2 1.1.5 1.5.9.2.2.3.4.3.7 0 .3-.1.5-.3.7-.2.2-.4.3-.7.3-.3 0-.5-.1-.7-.3-.4-.4-.9-.6-1.5-.6-1.2 0-2.1 1-2.1 2.1 0 1.2 1 2.1 2.1 2.1 2.2 0 4 1.8 4 4 0 1.7-1.1 3.2-2.7 3.8l-.4.1v2.2c.1.6-.3 1-.8 1z"/>
        <path d="M16.3 51.2C7.3 51.2 0 43.8 0 34.8c0-.5.4-.9.9-.9H4c5.3 0 10.3 2.6 13.3 7l1.1 1.5v-9.7h-.5c-8.3-.8-14.8-8-14.8-16.3C3.1 7.4 10.4 0 19.4 0s16.3 7.4 16.3 16.4c0 8.3-6.5 15.5-14.8 16.2h-.5v9.7l1.1-1.5c3.1-4.4 8-7 13.3-7h3.1c.5 0 .9.4.9.9 0 9-7.3 16.4-16.3 16.4h-6.2zm18.4-15.5c-7.4 0-13.5 5.6-14.3 12.9l-.1.7h2.1c7.4 0 13.5-5.6 14.3-12.9l.1-.7h-2.1zM2 36.4c.8 7.4 7 12.9 14.3 12.9h2.1l-.1-.7c-.8-7.4-7-12.9-14.3-12.9H1.9l.1.7zM19.4 1.9C11.4 1.9 5 8.4 5 16.4c0 7.9 6.5 14.4 14.4 14.4s14.4-6.5 14.4-14.4c0-8-6.5-14.5-14.4-14.5z"/>
    </g>
</symbol><symbol id="icon-earn3" viewBox="0 0 52.7 53.8">
    <path d="M14.1 9.9c.4 1 1.3 1.7 2.4 1.7H23c1.1 0 2-.7 2.4-1.7.3-1 1.4-3.2 2.2-3.9.7-.6 1.1-1.6.9-2.5-.2-.9-.8-1.6-1.7-1.9-2.6-.9-5-.6-6.8.8-.3.3-.7.3-1.1 0C17.3 1 15 .7 12.3 1.6c-.9.3-1.5 1-1.7 1.9-.2.9.2 1.9.9 2.5 1 .8 2.4 3.2 2.6 3.9zm-1.8-6.1c0-.2.1-.5.5-.6.8-.3 1.6-.4 2.3-.4 1.1 0 2 .3 2.8 1 1 .8 2.3.8 3.3 0 1.3-1.1 3-1.2 5.1-.6.4.1.5.4.5.6.1.3-.1.6-.3.8-1.3 1.1-2.5 4-2.8 4.7-.1.3-.4.5-.7.5h-6.5c-.3 0-.6-.2-.7-.5-.4-1.1-2-3.7-3.2-4.7-.2-.2-.3-.5-.3-.8zm0 0"/>
    <path d="M27.3 13.4c0-.5-.4-.9-.9-.9-.2 0-.3.1-.4.1-.1-.1-.3-.1-.4-.1H15c-.5 0-.9.4-.9.9s.4.9.9.9h10.5v.9h-9.7c-.5 0-.9.4-.9.9s.4.9.9.9h10.5c.8.7 1.8 1 2.8 1 1.2 0 2.3-.5 3.1-1.3.3-.3.3-.9 0-1.2-.3-.3-.9-.3-1.2 0-1 1-2.7 1-3.7 0v-2.1zm0 0"/>
    
    <clipPath id="b">
        <use xlink:href="#a" overflow="visible"/>
    </clipPath>
    <path clip-path="url(#b)" d="M18.5 23.9c-5.6 0-12.3 7.1-12.3 13.2 0 .5.4.9.9.9s.9-.4.9-.9c0-5 5.9-11.4 10.5-11.4.5 0 .9-.4.9-.9s-.4-.9-.9-.9zm0 0"/>
    <path clip-path="url(#b)" d="M43.1 29.2c-.9 0-2 .1-3.1.2-1.2-2.2-2.7-4-4.7-5.5L29 19.5c-1-.8-2.7-1.8-4.6-1.8h-6.8c-1.7 0-3.4.6-4.7 1.6l-6.2 4.5C.2 28.9-1.8 37.8 1.8 45c1.3 2.6 3.5 5.8 6.6 6h17.8c1.3 1.6 3.3 2.6 5.5 2.6 2.5 0 4.8-1.4 6-3.4 1.6.5 3.5.8 5.4.8 4.2 0 8.8-1.3 8.8-3.5v-4.8h-.1c0-.1.1-.3.1-.4v-10c-.1-2.5-5.6-3.1-8.8-3.1zm6.9 3c0 .1 0 .1 0 0-.1.1-.1.1-.2.1s-.1.1-.2.1-.1.1-.2.1-.2.1-.3.1c-.1 0-.2.1-.3.1-.1 0-.3.1-.4.1-.1 0-.2.1-.4.1s-.4.1-.5.1c-.1 0-.3.1-.4.1-.2 0-.4.1-.7.1-.2 0-.3 0-.5.1-.3 0-.6.1-.9.1h-4c-.3 0-.6 0-.9-.1-.2 0-.3 0-.5-.1-.2 0-.5-.1-.7-.1-.2 0-.3-.1-.4-.1-.2 0-.4-.1-.5-.1-.1 0-.2-.1-.4-.1-.1 0-.3-.1-.4-.1-.1 0-.2-.1-.3-.1-.1 0-.2-.1-.3-.1-.1 0-.1-.1-.2-.1s-.1-.1-.2-.1l-.1-.1-.1-.1.1-.1c.1 0 .2-.1.3-.2.1 0 .1-.1.2-.1s.2-.1.2-.1c.1 0 .2-.1.3-.1.1 0 .2-.1.2-.1.2-.1.4-.1.6-.2.1 0 .2-.1.4-.1.1 0 .3-.1.4-.1.2 0 .4-.1.5-.1 1-.1 2.2-.3 3.6-.3 4.4.3 6.7 1.2 7.2 1.6zm-13.4 7.3c.1 0 .2.1.2.1.2.1.3.1.5.2.1 0 .2.1.3.1.2.1.4.1.6.2.1 0 .1 0 .2.1.3.1.5.1.8.2h.2c.2 0 .5.1.7.1h.3c.2 0 .4.1.6.1h4.2c.2 0 .4 0 .6-.1h.3c.2 0 .4-.1.7-.1h.2c.3-.1.5-.1.8-.2.1 0 .1 0 .2-.1.2-.1.4-.1.6-.2.1 0 .2-.1.3-.1.2-.1.3-.1.5-.2.1 0 .2-.1.2-.1.2-.1.3-.1.5-.2 0 0 .1 0 .1-.1v3.1c-.2.5-2.5 1.6-6.1 1.8h-1c-1.9 0-3.8-.3-5.3-.8-.1-.2-.2-.4-.3-.5 0 0 0-.1-.1-.1-.1-.2-.2-.3-.3-.5l-.1-.1c-.1-.1-.2-.2-.3-.4l-.2-.2-.3-.3v-2.1s.1 0 .1.1.2.2.3.3zM25 49.4H8.5c-1.7-.1-3.5-1.9-5.1-5-3.3-6.5-1.4-14.5 4.4-19l6.2-4.5c1-.8 2.3-1.2 3.6-1.2h6.8c1.4 0 2.7.8 3.6 1.4l6.3 4.3c1.6 1.2 2.9 2.7 3.9 4.4-1.1.2-2.2.6-2.9 1.1h-.1l-.3.3-.1.1-.2.2c0 .1-.1.1-.1.2s-.1.1-.1.2c-.1.1-.1.3-.1.5v8l-.9-.3h-.1c-.3-.1-.6-.1-.9-.2H31.3c-.3 0-.6.1-.9.1h-.1c-.3.1-.5.1-.8.2-.1 0-.2.1-.3.1-.3.1-.5.2-.8.4-.1.1-.2.1-.3.2-.2.1-.3.2-.5.3-.1.1-.2.1-.3.2-.2.2-.4.3-.6.5-.1.1-.2.2-.2.3-.1.1-.3.3-.4.5-.1.1-.1.2-.2.3-.2.2-.3.5-.4.7 0 .1-.1.2-.1.3-.1.2-.2.4-.3.7 0 .1-.1.1-.1.2-.1.3-.2.6-.2.9v.2c0 .2 0 .4-.1.6V47.3c0 .6.1 1.4.3 2.1zm6.7 2.6c-2.9 0-5.2-2.3-5.3-5.2v-.2-.3-.2-.2c0-.2.1-.4.2-.7v-.1l.3-.6v-.1c.5-.9 1.2-1.7 2.1-2.2l.6-.3c.1 0 .1 0 .2-.1.2-.1.4-.1.6-.2h.1c.3-.1.5-.1.8-.1h.9c.3 0 .5.1.8.2.3.1.5.2.8.3.2.1.5.2.7.4 0 0 .1 0 .1.1.1.1.3.2.4.3l.1.1.4.4c.3.3.5.7.7 1.1 0 .1.1.2.1.3.1.2.1.3.2.5s.1.3.1.5.1.3.1.5V47.4c0 .2 0 .3-.1.5v.1c0 .2-.1.3-.1.5-.1.2-.1.3-.2.5-.7 1.7-2.5 3-4.6 3zm11.4-2.6c-1.7 0-3.3-.2-4.7-.6.1-.3.2-.6.2-.9v-.2c0-.3.1-.6.1-.9v-.7-.2-.3c1.3.2 2.9.4 4.5.4 2.1 0 5.1-.3 7-1.1v2.8c-.3.4-3 1.7-7.1 1.7zm0-10.6c-4.1 0-6.8-1.3-7-1.7v-2.9h.1c.2.1.4.2.7.3.2.1.5.1.7.2.1 0 .2 0 .3.1.2 0 .4.1.6.1.1 0 .2 0 .3.1.2 0 .4.1.6.1h.2c.3 0 .6.1.8.1h.2c.2 0 .4 0 .6.1h3.6c.2 0 .4 0 .6-.1h.2c.3 0 .6-.1.8-.1h.2c.2 0 .4-.1.6-.1.1 0 .2 0 .3-.1.2 0 .4-.1.6-.1.1 0 .2 0 .3-.1.3-.1.5-.1.8-.2.2-.1.4-.2.7-.2h.1v2.8c-.1.5-2.8 1.7-6.9 1.7zm0 0"/>
</symbol><symbol id="icon-earn4" viewBox="0 0 51 51">
    <g>
        <path d="M49.3 46.8h-6.8v-17h6.8v17zm-20.7 2c-1 .3-2.1.5-3.2.5h-.2c-1.4 0-2.7-.3-4-.8L2.7 40.7c-.6-.3-1-.8-1-1.5s.4-1.3 1.1-1.5c.3-.1.7-.1 1.1 0l12.2 3.8c.3.3.7.5 1.1.7h.1c.2.1.4.1.5.2h.1c.2 0 .4.1.6.1h12.8v-1.7H18.7c-.2 0-.3 0-.5-.1-.1 0-.1 0-.2-.1-.1 0-.2-.1-.3-.1-.1 0-.1-.1-.2-.1-.1-.1-.2-.1-.3-.2 0 0-.1 0-.1-.1-.1-.1-.2-.3-.3-.4l-.2-.5c-.3-.6-.3-1.3.1-1.9.4-.5.9-.8 1.6-.8h7c.2 0 .3 0 .5-.1l6.8-4.5c.4-.3.9-.4 1.4-.4h6.6v13l-12 4.3zM50.1 28h-8.5c-.5 0-.9.4-.9.9v.9h-6.6c-.8 0-1.7.2-2.4.7l-6.6 4.4h-6.8c-1.2 0-2.3.6-3 1.6-.6.9-.7 1.9-.5 2.9L4.5 36.1c-.7-.3-1.5-.3-2.3 0-1.3.4-2.2 1.6-2.2 3.1 0 1.3.8 2.5 2 3L20.5 50c1.5.6 3 .9 4.6.9h.2c1.3 0 2.5-.2 3.8-.6l11.6-4.1v1.3c0 .5.4.9.9.9h8.5c.5 0 .9-.4.9-.9V28.9c0-.5-.4-.9-.9-.9z"/>
        <path d="M45.9 19.5c0 .9-.8 1.7-1.7 1.7s-1.7-.8-1.7-1.7c0-.9.8-1.7 1.7-1.7s1.7.8 1.7 1.7zm-5.1 0c0 1.9 1.5 3.4 3.4 3.4s3.4-1.5 3.4-3.4-1.5-3.4-3.4-3.4-3.4 1.6-3.4 3.4z"/>
        <path d="M32.3 9.4c-.9 0-1.7-.8-1.7-1.7S31.4 6 32.3 6s1.7.7 1.7 1.6-.8 1.8-1.7 1.8zm0-5.1c-1.9 0-3.4 1.5-3.4 3.4s1.5 3.4 3.4 3.4 3.4-1.5 3.4-3.4-1.5-3.4-3.4-3.4z"/>
        <path d="M29.1 21.5l17-17 1.2 1.2-16.9 17-1.3-1.2z"/>
        <path d="M13.6 25.5C7 25.5 1.7 20.2 1.7 13.6S7 1.7 13.6 1.7 25.5 7 25.5 13.6s-5.3 11.9-11.9 11.9zm0-25.5C6.1 0 0 6.1 0 13.6s6.1 13.6 13.6 13.6 13.6-6.1 13.6-13.6S21.1 0 13.6 0z"/>
        <path d="M3.4 26.4h1.7V28H3.4v-1.6z"/>
        <path d="M3.4 29.8h1.7v3.3H3.4v-3.3z"/>
        <path d="M22.1 26.4h1.7V28h-1.7v-1.6z"/>
        <path d="M22.1 29.8h1.7v3.3h-1.7v-3.3z"/>
        <path d="M12.8 28.9h1.7v1.7h-1.7v-1.7z"/>
        <path d="M12.8 32.3h1.7v2.6h-1.7v-2.6z"/>
    </g>
    <path d="M13.6 22.8c-.5 0-.9-.4-.9-.9v-2.2l-.4-.1c-.6-.2-1.1-.5-1.5-.9-.2-.2-.3-.4-.3-.7 0-.3.1-.5.3-.7.2-.2.4-.3.7-.3.3 0 .5.1.7.3.4.4.9.6 1.5.6 1.2 0 2.1-1 2.1-2.1 0-1.2-1-2.1-2.1-2.1-2.2 0-4-1.8-4-4 0-1.7 1.1-3.2 2.7-3.8l.4-.1V3.5c0-.5.4-.9.9-.9s.9.4.9.9v2.2l.4.1c.5.2 1 .5 1.4 1 .2.2.3.4.3.7s-.1.5-.3.7c-.2.2-.4.3-.7.3-.3 0-.5-.1-.7-.3-.4-.4-.9-.6-1.5-.6-1.2 0-2.1 1-2.1 2.1 0 1.2 1 2.1 2.1 2.1 2.2 0 4 1.8 4 4 0 1.7-1.1 3.2-2.7 3.8l-.4.1v2.2c.1.5-.3.9-.8.9z"/>
</symbol><symbol id="icon-facebook" viewBox="0 0 10 19">
    <title>
        facebook
    </title>
    <path d="M9.766.157v2.946H8.014c-.64 0-1.071.134-1.295.402-.223.268-.335.67-.335 1.205v2.11h3.27l-.435 3.303H6.384v8.471H2.97v-8.47H.123V6.82H2.97V4.387c0-1.384.387-2.457 1.161-3.22C4.904.404 5.934.023 7.222.023c1.093 0 1.941.045 2.544.134z" fill-rule="evenodd"/>
</symbol><symbol id="icon-hex-hover" viewBox="0 0 329.3 290.9">
    <path d="M94.4 290.9c-.7 0-6.9-.1-12.4-3.3-4.9-2.9-7.5-7.7-7.9-8.4L3.4 157c-.5-.7-3.4-5.4-3.4-11.2 0-6.1 3.2-11.3 3.3-11.5L73 13.4c.4-.8 4.5-8.1 9.1-10.9C85.5.5 90.6.1 94.2.1H96L233.8 0c.4 0 8.7.3 13.6 3.3 4.8 3 7.8 8 7.9 8.2l70.9 122.4c.2.3 3.1 5.9 3.1 11.6 0 6.2-3.1 11.4-3.3 11.6l-70.7 122.6c-.1.2-2.5 4.3-6.8 7.4-4.8 3.5-11 3.6-12.2 3.6h-.1l-141.8.2zM94.2 5.1c-4.2 0-7.7.6-9.6 1.7-2.9 1.7-6.2 7.1-7.3 9L7.6 136.7c-.1.1-2.6 4.4-2.6 9s2.5 8.5 2.6 8.5l.1.1 70.8 122.3.1.1s2.1 4.1 6 6.4c4.4 2.6 9.6 2.6 9.9 2.6v2.5-2.5l141.9-.1c2.2 0 6.4-.6 9.3-2.7 3.4-2.5 5.3-5.8 5.4-5.9l70.8-122.7c.1-.1 2.6-4.3 2.6-9.1 0-3.7-1.8-7.9-2.5-9.1L250.9 14s-2.5-4.1-6.2-6.4c-3.1-1.9-9-2.5-11-2.5H96h-.2-1.6z"/>
</symbol><symbol id="icon-hexagon1" viewBox="0 0 30.5 23.1">
    <path d="M15 11.2c-3.1 0-5.6-2.5-5.6-5.6S11.9 0 15 0s5.6 2.5 5.6 5.6-2.5 5.6-5.6 5.6zM15 1c-2.5 0-4.6 2.1-4.6 4.6s2.1 4.6 4.6 4.6 4.6-2.1 4.6-4.6S17.6 1 15 1z"/>
    <path d="M3.7 22.4c-2.1 0-3.7-1.7-3.7-3.7S1.7 15 3.7 15s3.7 1.7 3.7 3.7-1.6 3.7-3.7 3.7zm0-6.5c-1.5 0-2.7 1.2-2.7 2.7s1.2 2.7 2.7 2.7 2.7-1.2 2.7-2.7-1.2-2.7-2.7-2.7z"/>
    <path d="M15 23.1c-2.1 0-3.7-1.7-3.7-3.7s1.7-3.7 3.7-3.7 3.7 1.7 3.7 3.7-1.6 3.7-3.7 3.7zm0-6.4c-1.5 0-2.7 1.2-2.7 2.7s1.2 2.7 2.7 2.7 2.7-1.2 2.7-2.7-1.2-2.7-2.7-2.7z"/>
    <path d="M26.8 22.4c-2.1 0-3.7-1.7-3.7-3.7s1.7-3.7 3.7-3.7 3.7 1.7 3.7 3.7-1.6 3.7-3.7 3.7zm0-6.5c-1.5 0-2.7 1.2-2.7 2.7s1.2 2.7 2.7 2.7 2.7-1.2 2.7-2.7-1.2-2.7-2.7-2.7z"/>
    <path d="M4.728 15.428l6.78-6.07.667.745-6.78 6.07z"/>
    <path d="M17.91 9.957l.648-.761 7.308 6.224-.648.762z"/>
    <path d="M14.5 10.5h1v5.7h-1z"/>
</symbol><symbol id="icon-hexagon2" viewBox="0 0 26.2 24.5">
    <path d="M22.4 24.5H3.8c-2.1 0-3.8-1.7-3.8-3.8V5.5c0-2.1 1.7-3.8 3.8-3.8h18.6c2.1 0 3.8 1.7 3.8 3.8v15.3c0 2-1.7 3.7-3.8 3.7zM3.8 2.7C2.3 2.7 1 3.9 1 5.5v15.3c0 1.5 1.3 2.8 2.8 2.8h18.6c1.5 0 2.8-1.3 2.8-2.8V5.5c0-1.5-1.3-2.8-2.8-2.8H3.8z"/>
    <path d="M25.7 7.6H.5c-.3 0-.5-.2-.5-.5s.2-.5.5-.5h25.2c.3 0 .5.2.5.5s-.2.5-.5.5z"/>
    <path d="M6.8 4.4c-.3 0-.5-.2-.5-.5V.5c0-.3.2-.5.5-.5s.5.2.5.5v3.4c0 .3-.2.5-.5.5z"/>
    <path d="M19.4 4.4c-.3 0-.5-.2-.5-.5V.5c0-.3.2-.5.5-.5s.5.2.5.5v3.4c0 .3-.2.5-.5.5z"/>
    <path d="M13.1 21.2c-3.1 0-5.6-2.5-5.6-5.6S10 10 13.1 10c3.1 0 5.6 2.5 5.6 5.6s-2.5 5.6-5.6 5.6zm0-10.1c-2.5 0-4.6 2-4.6 4.6s2 4.6 4.6 4.6c2.5 0 4.6-2 4.6-4.6s-2.1-4.6-4.6-4.6z"/>
    <path d="M12.6 18.1c-.2 0-.3-.1-.4-.2l-1.8-2.6c-.2-.2-.1-.5.1-.7.2-.2.5-.1.7.1l1.4 2 2.3-3.8c.1-.2.4-.3.7-.2.2.1.3.4.2.7L13 17.9c-.1.1-.2.2-.4.2z"/>
</symbol><symbol id="icon-hexagon3" viewBox="0 0 23.1 23.1">
    <path d="M22.1 12.7c-.6 5.3-5.1 9.4-10.5 9.4C5.7 22.1 1 17.4 1 11.6 1 5.7 5.7 1 11.6 1c3 0 5.7 1.3 7.7 3.3h1.3c-2.1-2.6-5.4-4.3-9-4.3C5.2 0 0 5.2 0 11.6 0 18 5.2 23.2 11.6 23.2c6 0 10.9-4.6 11.5-10.4h-1z"/>
    <path d="M20.7 4.9c-.1.1-.3.1-.4.1l-3.4-.6c-.3 0-.5-.3-.4-.6 0-.3.3-.5.6-.4l3.3.6c.3 0 .5.3.4.6 0 .1 0 .2-.1.3z"/>
    <path d="M20.1 5l-.3-.3-.9-3.7c-.1-.3.1-.5.4-.6.3-.1.5.1.6.4l.9 3.7c.1.3-.1.5-.4.6-.1-.1-.2-.1-.3-.1z"/>
    <text transform="translate(5.439 15)" font-family="&apos;MyriadPro-Regular&apos;" font-size="12">
        24
    </text>
    <path d="M11.8 3.9c-.3 0-.5-.2-.5-.5V1.9c0-.3.2-.5.5-.5s.5.2.5.5v1.5c0 .3-.2.5-.5.5z"/>
    <path d="M11.8 21.6c-.3 0-.5-.2-.5-.5v-1.5c0-.3.2-.5.5-.5s.5.2.5.5v1.5c0 .3-.2.5-.5.5z"/>
    <path d="M3.9 12.1c0 .3-.2.5-.5.5H1.9c-.3 0-.5-.2-.5-.5s.2-.5.5-.5h1.5c.3 0 .5.2.5.5z"/>
    <path d="M21.6 12.3c0 .3-.2.5-.5.5h-1.5c-.3 0-.5-.2-.5-.5s.2-.5.5-.5h1.5c.3 0 .5.2.5.5z"/>
</symbol></svg>